<svg xmlns="http://www.w3.org/2000/svg" viewBox="0 0 600 600"><title>promo-stdev-hr</title><line x1="62.27" y1="556" x2="591.27" y2="556" style="fill:none;stroke:#000;stroke-miterlimit:10"/><line x1="62.27" y1="556" x2="62.27" y2="543" style="fill:none;stroke:#000;stroke-miterlimit:10"/><line x1="150.43" y1="556" x2="150.43" y2="543" style="fill:none;stroke:#000;stroke-miterlimit:10"/><line x1="238.6" y1="556" x2="238.6" y2="543" style="fill:none;stroke:#000;stroke-miterlimit:10"/><line x1="326.77" y1="556" x2="326.77" y2="543" style="fill:none;stroke:#000;stroke-miterlimit:10"/><line x1="414.93" y1="556" x2="414.93" y2="543" style="fill:none;stroke:#000;stroke-miterlimit:10"/><line x1="503.1" y1="556" x2="503.1" y2="543" style="fill:none;stroke:#000;stroke-miterlimit:10"/><line x1="591.27" y1="556" x2="591.27" y2="543" style="fill:none;stroke:#000;stroke-miterlimit:10"/><path d="M53.11,557.07c0,5.48-2,8.5-5.61,8.5-3.15,0-5.28-3-5.33-8.28s2.33-8.38,5.61-8.38S53.11,551.93,53.11,557.07Zm-8.76.24c0,4.19,1.29,6.58,3.28,6.58,2.23,0,3.3-2.61,3.3-6.72s-1-6.58-3.28-6.58C45.74,550.59,44.35,552.93,44.35,557.31Z"/><path d="M39.3,486H33.15l-.62,4.14a8.52,8.52,0,0,1,1.31-.1,6.75,6.75,0,0,1,3.47.87,4.58,4.58,0,0,1,2.31,4.14c0,3.15-2.51,5.5-6,5.5a7.87,7.87,0,0,1-4-1l.55-1.66a7.17,7.17,0,0,0,3.44.89,3.56,3.56,0,0,0,3.82-3.5c0-2.08-1.41-3.57-4.64-3.57a15.79,15.79,0,0,0-2.23.18l1-7.74H39.3Z"/><path d="M53.11,492.07c0,5.48-2,8.5-5.61,8.5-3.15,0-5.28-2.95-5.33-8.28s2.33-8.38,5.61-8.38S53.11,486.93,53.11,492.07Zm-8.76.24c0,4.19,1.29,6.58,3.28,6.58,2.23,0,3.29-2.61,3.29-6.72s-1-6.58-3.27-6.58C45.74,485.59,44.35,487.93,44.35,492.31Z"/><path d="M21.69,421.21h-.05l-2.8,1.52-.42-1.66,3.52-1.89H23.8V435.3H21.69Z"/><path d="M40.39,427.07c0,5.48-2,8.5-5.61,8.5-3.15,0-5.28-2.95-5.33-8.28s2.33-8.38,5.61-8.38S40.39,421.93,40.39,427.07Zm-8.76.24c0,4.19,1.29,6.58,3.28,6.58,2.23,0,3.29-2.61,3.29-6.72s-1-6.58-3.27-6.58C33,420.59,31.63,422.93,31.63,427.31Z"/><path d="M53.11,427.07c0,5.48-2,8.5-5.61,8.5-3.15,0-5.28-2.95-5.33-8.28s2.33-8.38,5.61-8.38S53.11,421.93,53.11,427.07Zm-8.76.24c0,4.19,1.29,6.58,3.28,6.58,2.23,0,3.3-2.61,3.3-6.72s-1-6.58-3.28-6.58C45.74,420.59,44.35,422.93,44.35,427.31Z"/><path d="M21.69,356.21h-.05l-2.8,1.52-.42-1.66,3.52-1.89H23.8V370.3H21.69Z"/><path d="M39.3,356H33.15l-.62,4.14a8.52,8.52,0,0,1,1.31-.1,6.75,6.75,0,0,1,3.47.87,4.58,4.58,0,0,1,2.31,4.14c0,3.15-2.51,5.5-6,5.5a7.87,7.87,0,0,1-4-1l.55-1.66a7.17,7.17,0,0,0,3.44.89,3.56,3.56,0,0,0,3.82-3.5c0-2.08-1.41-3.57-4.64-3.57a15.79,15.79,0,0,0-2.23.18l1-7.74H39.3Z"/><path d="M53.11,362.07c0,5.48-2,8.5-5.61,8.5-3.15,0-5.28-2.95-5.33-8.28s2.33-8.38,5.61-8.38S53.11,356.93,53.11,362.07Zm-8.76.24c0,4.19,1.29,6.58,3.28,6.58,2.23,0,3.3-2.61,3.3-6.72s-1-6.57-3.28-6.57C45.74,355.6,44.35,357.93,44.35,362.31Z"/><path d="M17,305.3V304l1.72-1.66c4.11-3.92,6-6,6-8.43a2.88,2.88,0,0,0-3.2-3.15,5.45,5.45,0,0,0-3.42,1.36l-.7-1.53a7,7,0,0,1,4.56-1.64c3.48,0,4.94,2.38,4.94,4.69,0,3-2.16,5.38-5.56,8.65L20,303.44v.05h7.24v1.81Z"/><path d="M40.39,297.07c0,5.48-2,8.5-5.61,8.5-3.15,0-5.28-2.95-5.33-8.28s2.33-8.38,5.61-8.38S40.39,291.93,40.39,297.07Zm-8.76.24c0,4.19,1.29,6.58,3.28,6.58,2.23,0,3.29-2.61,3.29-6.72s-1-6.57-3.27-6.57C33,290.6,31.63,292.93,31.63,297.31Z"/><path d="M53.11,297.07c0,5.48-2,8.5-5.61,8.5-3.15,0-5.28-2.95-5.33-8.28s2.33-8.38,5.61-8.38S53.11,291.93,53.11,297.07Zm-8.76.24c0,4.19,1.29,6.58,3.28,6.58,2.23,0,3.3-2.61,3.3-6.72s-1-6.57-3.28-6.57C45.74,290.6,44.35,292.93,44.35,297.31Z"/><path d="M17,240.3V239l1.72-1.66c4.11-3.92,6-6,6-8.43a2.88,2.88,0,0,0-3.2-3.15,5.45,5.45,0,0,0-3.42,1.36l-.7-1.53a7,7,0,0,1,4.56-1.64c3.48,0,4.94,2.38,4.94,4.69,0,3-2.16,5.38-5.56,8.65L20,238.44v.05h7.24v1.81Z"/><path d="M39.3,226H33.15l-.62,4.14a8.52,8.52,0,0,1,1.31-.1,6.75,6.75,0,0,1,3.47.87,4.58,4.58,0,0,1,2.31,4.14c0,3.15-2.51,5.5-6,5.5a7.87,7.87,0,0,1-4-1l.55-1.66a7.17,7.17,0,0,0,3.44.89,3.56,3.56,0,0,0,3.82-3.5c0-2.08-1.41-3.57-4.64-3.57a15.79,15.79,0,0,0-2.23.18l1-7.74H39.3Z"/><path d="M53.11,232.07c0,5.48-2,8.5-5.61,8.5-3.15,0-5.28-2.95-5.33-8.28s2.33-8.38,5.61-8.38S53.11,226.93,53.11,232.07Zm-8.76.24c0,4.19,1.29,6.58,3.28,6.58,2.23,0,3.3-2.61,3.3-6.72s-1-6.57-3.28-6.57C45.74,225.6,44.35,227.93,44.35,232.31Z"/><path d="M17.48,172.79a7.23,7.23,0,0,0,3.57,1c2.8,0,3.67-1.78,3.64-3.12,0-2.26-2.06-3.23-4.16-3.23H19.31v-1.63h1.22c1.58,0,3.59-.82,3.59-2.73,0-1.29-.82-2.43-2.83-2.43a5.86,5.86,0,0,0-3.22,1.07l-.57-1.59a7.66,7.66,0,0,1,4.22-1.24c3.17,0,4.61,1.88,4.61,3.84a4,4,0,0,1-3,3.8v0a4.19,4.19,0,0,1,3.6,4.14c0,2.58-2,4.83-5.88,4.83a8.19,8.19,0,0,1-4.19-1.09Z"/><path d="M40.39,167.07c0,5.48-2,8.5-5.61,8.5-3.15,0-5.28-2.95-5.33-8.28s2.33-8.38,5.61-8.38S40.39,161.93,40.39,167.07Zm-8.76.24c0,4.19,1.29,6.58,3.28,6.58,2.23,0,3.29-2.61,3.29-6.72s-1-6.57-3.27-6.57C33,160.6,31.63,162.93,31.63,167.31Z"/><path d="M53.11,167.07c0,5.48-2,8.5-5.61,8.5-3.15,0-5.28-2.95-5.33-8.28s2.33-8.38,5.61-8.38S53.11,161.93,53.11,167.07Zm-8.76.24c0,4.19,1.29,6.58,3.28,6.58,2.23,0,3.3-2.61,3.3-6.72s-1-6.57-3.28-6.57C45.74,160.6,44.35,162.93,44.35,167.31Z"/><path d="M17.48,107.79a7.23,7.23,0,0,0,3.57,1c2.8,0,3.67-1.78,3.64-3.12,0-2.26-2.06-3.23-4.16-3.23H19.31v-1.63h1.22c1.58,0,3.59-.82,3.59-2.73,0-1.29-.82-2.43-2.83-2.43a5.86,5.86,0,0,0-3.22,1.07l-.57-1.59a7.66,7.66,0,0,1,4.22-1.24c3.17,0,4.61,1.88,4.61,3.84a4,4,0,0,1-3,3.8v0a4.19,4.19,0,0,1,3.6,4.14c0,2.58-2,4.83-5.88,4.83a8.19,8.19,0,0,1-4.19-1.09Z"/><path d="M39.3,96H33.15l-.62,4.14a8.52,8.52,0,0,1,1.31-.1,6.75,6.75,0,0,1,3.47.87,4.58,4.58,0,0,1,2.31,4.14c0,3.15-2.51,5.5-6,5.5a7.87,7.87,0,0,1-4-1l.55-1.66a7.17,7.17,0,0,0,3.44.89,3.56,3.56,0,0,0,3.82-3.5c0-2.08-1.41-3.57-4.64-3.57a15.79,15.79,0,0,0-2.23.18l1-7.74H39.3Z"/><path d="M53.11,102.07c0,5.48-2,8.5-5.61,8.5-3.15,0-5.28-2.95-5.33-8.28s2.33-8.38,5.61-8.38S53.11,96.93,53.11,102.07Zm-8.76.24c0,4.19,1.29,6.58,3.28,6.58,2.23,0,3.3-2.61,3.3-6.72s-1-6.57-3.28-6.57C45.74,95.6,44.35,97.93,44.35,102.31Z"/><path d="M23.7,45.3V40.91H16.21V39.47L23.4,29.18h2.36v10H28v1.71H25.76V45.3Zm0-6.1V33.82c0-.84,0-1.69.07-2.53H23.7c-.5.94-.89,1.64-1.34,2.38l-3.94,5.48v.05Z"/><path d="M40.39,37.07c0,5.48-2,8.5-5.61,8.5-3.15,0-5.28-3-5.33-8.28s2.33-8.38,5.61-8.38S40.39,31.93,40.39,37.07Zm-8.76.24c0,4.19,1.29,6.58,3.28,6.58,2.23,0,3.29-2.61,3.29-6.72s-1-6.57-3.27-6.57C33,30.6,31.63,32.93,31.63,37.31Z"/><path d="M53.11,37.07c0,5.48-2,8.5-5.61,8.5-3.15,0-5.28-3-5.33-8.28s2.33-8.38,5.61-8.38S53.11,31.93,53.11,37.07Zm-8.76.24c0,4.19,1.29,6.58,3.28,6.58,2.23,0,3.3-2.61,3.3-6.72s-1-6.57-3.28-6.57C45.74,30.6,44.35,32.93,44.35,37.31Z"/><line x1="62.27" y1="556" x2="62.27" y2="36" style="fill:none;stroke:#000;stroke-miterlimit:10"/><line x1="62.27" y1="556" x2="75.49" y2="556" style="fill:none;stroke:#000;stroke-miterlimit:10"/><line x1="62.27" y1="491" x2="75.49" y2="491" style="fill:none;stroke:#000;stroke-miterlimit:10"/><line x1="62.27" y1="426" x2="75.49" y2="426" style="fill:none;stroke:#000;stroke-miterlimit:10"/><line x1="62.27" y1="361" x2="75.49" y2="361" style="fill:none;stroke:#000;stroke-miterlimit:10"/><line x1="62.27" y1="296" x2="75.49" y2="296" style="fill:none;stroke:#000;stroke-miterlimit:10"/><line x1="62.27" y1="231" x2="75.49" y2="231" style="fill:none;stroke:#000;stroke-miterlimit:10"/><line x1="62.27" y1="166" x2="75.49" y2="166" style="fill:none;stroke:#000;stroke-miterlimit:10"/><line x1="62.27" y1="101" x2="75.49" y2="101" style="fill:none;stroke:#000;stroke-miterlimit:10"/><line x1="62.27" y1="36" x2="75.49" y2="36" style="fill:none;stroke:#000;stroke-miterlimit:10"/><line x1="194.52" y1="485.44" x2="106.35" y2="414.56" style="fill:none;stroke:#606060;stroke-linecap:round;stroke-miterlimit:10;stroke-width:2px"/><line x1="282.68" y1="532.35" x2="194.52" y2="485.44" style="fill:none;stroke:#606060;stroke-linecap:round;stroke-miterlimit:10;stroke-width:2px"/><line x1="370.85" y1="546.89" x2="282.68" y2="532.35" style="fill:none;stroke:#606060;stroke-linecap:round;stroke-miterlimit:10;stroke-width:2px"/><line x1="459.02" y1="553.52" x2="370.85" y2="546.89" style="fill:none;stroke:#606060;stroke-linecap:round;stroke-miterlimit:10;stroke-width:2px"/><line x1="547.18" y1="554.92" x2="459.02" y2="553.52" style="fill:none;stroke:#606060;stroke-linecap:round;stroke-miterlimit:10;stroke-width:2px"/><line x1="194.52" y1="498.27" x2="106.35" y2="425.53" style="fill:none;stroke:#bfbfbf;stroke-linecap:round;stroke-miterlimit:10;stroke-width:2px"/><line x1="282.68" y1="531.17" x2="194.52" y2="498.27" style="fill:none;stroke:#bfbfbf;stroke-linecap:round;stroke-miterlimit:10;stroke-width:2px"/><line x1="370.85" y1="547.61" x2="282.68" y2="531.17" style="fill:none;stroke:#bfbfbf;stroke-linecap:round;stroke-miterlimit:10;stroke-width:2px"/><line x1="459.02" y1="553.78" x2="370.85" y2="547.61" style="fill:none;stroke:#bfbfbf;stroke-linecap:round;stroke-miterlimit:10;stroke-width:2px"/><line x1="547.18" y1="555.47" x2="459.02" y2="553.78" style="fill:none;stroke:#bfbfbf;stroke-linecap:round;stroke-miterlimit:10;stroke-width:2px"/><line x1="194.52" y1="490.18" x2="106.35" y2="377.91" style="fill:none;stroke:#202020;stroke-linecap:round;stroke-miterlimit:10;stroke-width:2px"/><line x1="282.68" y1="532.37" x2="194.52" y2="490.18" style="fill:none;stroke:#202020;stroke-linecap:round;stroke-miterlimit:10;stroke-width:2px"/><line x1="370.85" y1="547.69" x2="282.68" y2="532.37" style="fill:none;stroke:#202020;stroke-linecap:round;stroke-miterlimit:10;stroke-width:2px"/><line x1="459.02" y1="553.4" x2="370.85" y2="547.69" style="fill:none;stroke:#202020;stroke-linecap:round;stroke-miterlimit:10;stroke-width:2px"/><line x1="547.18" y1="555.34" x2="459.02" y2="553.4" style="fill:none;stroke:#202020;stroke-linecap:round;stroke-miterlimit:10;stroke-width:2px"/><line x1="194.52" y1="468.87" x2="106.35" y2="405.29" style="fill:none;stroke:#9f9f9f;stroke-linecap:round;stroke-miterlimit:10;stroke-width:2px"/><line x1="282.68" y1="534.61" x2="194.52" y2="468.87" style="fill:none;stroke:#9f9f9f;stroke-linecap:round;stroke-miterlimit:10;stroke-width:2px"/><line x1="370.85" y1="546.99" x2="282.68" y2="534.61" style="fill:none;stroke:#9f9f9f;stroke-linecap:round;stroke-miterlimit:10;stroke-width:2px"/><line x1="459.02" y1="553.84" x2="370.85" y2="546.99" style="fill:none;stroke:#9f9f9f;stroke-linecap:round;stroke-miterlimit:10;stroke-width:2px"/><line x1="547.18" y1="555.47" x2="459.02" y2="553.84" style="fill:none;stroke:#9f9f9f;stroke-linecap:round;stroke-miterlimit:10;stroke-width:2px"/><line x1="194.52" y1="510.92" x2="106.35" y2="429.98" style="fill:none;stroke:#404040;stroke-linecap:round;stroke-miterlimit:10;stroke-width:2px"/><line x1="282.68" y1="531.29" x2="194.52" y2="510.92" style="fill:none;stroke:#404040;stroke-linecap:round;stroke-miterlimit:10;stroke-width:2px"/><line x1="370.85" y1="548.82" x2="282.68" y2="531.29" style="fill:none;stroke:#404040;stroke-linecap:round;stroke-miterlimit:10;stroke-width:2px"/><line x1="459.02" y1="554.34" x2="370.85" y2="548.82" style="fill:none;stroke:#404040;stroke-linecap:round;stroke-miterlimit:10;stroke-width:2px"/><line x1="547.18" y1="555.47" x2="459.02" y2="554.34" style="fill:none;stroke:#404040;stroke-linecap:round;stroke-miterlimit:10;stroke-width:2px"/><line x1="194.52" y1="484.36" x2="106.35" y2="433.29" style="fill:none;stroke:gray;stroke-linecap:round;stroke-miterlimit:10;stroke-width:2px"/><line x1="282.68" y1="524.38" x2="194.52" y2="484.36" style="fill:none;stroke:gray;stroke-linecap:round;stroke-miterlimit:10;stroke-width:2px"/><line x1="370.85" y1="547.47" x2="282.68" y2="524.38" style="fill:none;stroke:gray;stroke-linecap:round;stroke-miterlimit:10;stroke-width:2px"/><line x1="459.02" y1="553.95" x2="370.85" y2="547.47" style="fill:none;stroke:gray;stroke-linecap:round;stroke-miterlimit:10;stroke-width:2px"/><line x1="547.18" y1="555.47" x2="459.02" y2="553.95" style="fill:none;stroke:gray;stroke-linecap:round;stroke-miterlimit:10;stroke-width:2px"/><line x1="194.52" y1="476.43" x2="106.35" y2="415.82" style="fill:none;stroke:#dfdfdf;stroke-linecap:round;stroke-miterlimit:10;stroke-width:2px"/><line x1="282.68" y1="532.01" x2="194.52" y2="476.43" style="fill:none;stroke:#dfdfdf;stroke-linecap:round;stroke-miterlimit:10;stroke-width:2px"/><line x1="370.85" y1="549.06" x2="282.68" y2="532.01" style="fill:none;stroke:#dfdfdf;stroke-linecap:round;stroke-miterlimit:10;stroke-width:2px"/><line x1="459.02" y1="553.32" x2="370.85" y2="549.06" style="fill:none;stroke:#dfdfdf;stroke-linecap:round;stroke-miterlimit:10;stroke-width:2px"/><line x1="547.18" y1="555.47" x2="459.02" y2="553.32" style="fill:none;stroke:#dfdfdf;stroke-linecap:round;stroke-miterlimit:10;stroke-width:2px"/><line x1="194.52" y1="493.27" x2="106.35" y2="413.65" style="fill:none;stroke:#000;stroke-linecap:round;stroke-miterlimit:10;stroke-width:2px"/><line x1="282.68" y1="528" x2="194.52" y2="493.27" style="fill:none;stroke:#000;stroke-linecap:round;stroke-miterlimit:10;stroke-width:2px"/><line x1="370.85" y1="546.32" x2="282.68" y2="528" style="fill:none;stroke:#000;stroke-linecap:round;stroke-miterlimit:10;stroke-width:2px"/><line x1="459.02" y1="553.56" x2="370.85" y2="546.32" style="fill:none;stroke:#000;stroke-linecap:round;stroke-miterlimit:10;stroke-width:2px"/><line x1="547.18" y1="555.47" x2="459.02" y2="553.56" style="fill:none;stroke:#000;stroke-linecap:round;stroke-miterlimit:10;stroke-width:2px"/><line x1="194.52" y1="492.04" x2="106.35" y2="451.1" style="fill:none;stroke:#606060;stroke-linecap:round;stroke-miterlimit:10;stroke-width:2px"/><line x1="282.68" y1="529.93" x2="194.52" y2="492.04" style="fill:none;stroke:#606060;stroke-linecap:round;stroke-miterlimit:10;stroke-width:2px"/><line x1="370.85" y1="545.53" x2="282.68" y2="529.93" style="fill:none;stroke:#606060;stroke-linecap:round;stroke-miterlimit:10;stroke-width:2px"/><line x1="459.02" y1="554.39" x2="370.85" y2="545.53" style="fill:none;stroke:#606060;stroke-linecap:round;stroke-miterlimit:10;stroke-width:2px"/><line x1="547.18" y1="555.47" x2="459.02" y2="554.39" style="fill:none;stroke:#606060;stroke-linecap:round;stroke-miterlimit:10;stroke-width:2px"/><line x1="194.52" y1="479.57" x2="106.35" y2="402.21" style="fill:none;stroke:#bfbfbf;stroke-linecap:round;stroke-miterlimit:10;stroke-width:2px"/><line x1="282.68" y1="538.58" x2="194.52" y2="479.57" style="fill:none;stroke:#bfbfbf;stroke-linecap:round;stroke-miterlimit:10;stroke-width:2px"/><line x1="370.85" y1="547.15" x2="282.68" y2="538.58" style="fill:none;stroke:#bfbfbf;stroke-linecap:round;stroke-miterlimit:10;stroke-width:2px"/><line x1="459.02" y1="554.01" x2="370.85" y2="547.15" style="fill:none;stroke:#bfbfbf;stroke-linecap:round;stroke-miterlimit:10;stroke-width:2px"/><line x1="547.18" y1="555.47" x2="459.02" y2="554.01" style="fill:none;stroke:#bfbfbf;stroke-linecap:round;stroke-miterlimit:10;stroke-width:2px"/><line x1="194.52" y1="490.75" x2="106.35" y2="372.92" style="fill:none;stroke:#202020;stroke-linecap:round;stroke-miterlimit:10;stroke-width:2px"/><line x1="282.68" y1="536.33" x2="194.52" y2="490.75" style="fill:none;stroke:#202020;stroke-linecap:round;stroke-miterlimit:10;stroke-width:2px"/><line x1="370.85" y1="548.56" x2="282.68" y2="536.33" style="fill:none;stroke:#202020;stroke-linecap:round;stroke-miterlimit:10;stroke-width:2px"/><line x1="459.02" y1="554.01" x2="370.85" y2="548.56" style="fill:none;stroke:#202020;stroke-linecap:round;stroke-miterlimit:10;stroke-width:2px"/><line x1="547.18" y1="555.47" x2="459.02" y2="554.01" style="fill:none;stroke:#202020;stroke-linecap:round;stroke-miterlimit:10;stroke-width:2px"/><line x1="194.52" y1="498.03" x2="106.35" y2="367.41" style="fill:none;stroke:#9f9f9f;stroke-linecap:round;stroke-miterlimit:10;stroke-width:2px"/><line x1="282.68" y1="523.43" x2="194.52" y2="498.03" style="fill:none;stroke:#9f9f9f;stroke-linecap:round;stroke-miterlimit:10;stroke-width:2px"/><line x1="370.85" y1="550.46" x2="282.68" y2="523.43" style="fill:none;stroke:#9f9f9f;stroke-linecap:round;stroke-miterlimit:10;stroke-width:2px"/><line x1="459.02" y1="553.84" x2="370.85" y2="550.46" style="fill:none;stroke:#9f9f9f;stroke-linecap:round;stroke-miterlimit:10;stroke-width:2px"/><line x1="547.18" y1="555.47" x2="459.02" y2="553.84" style="fill:none;stroke:#9f9f9f;stroke-linecap:round;stroke-miterlimit:10;stroke-width:2px"/><line x1="194.52" y1="467.64" x2="106.35" y2="436.39" style="fill:none;stroke:#404040;stroke-linecap:round;stroke-miterlimit:10;stroke-width:2px"/><line x1="282.68" y1="533.47" x2="194.52" y2="467.64" style="fill:none;stroke:#404040;stroke-linecap:round;stroke-miterlimit:10;stroke-width:2px"/><line x1="370.85" y1="546.21" x2="282.68" y2="533.47" style="fill:none;stroke:#404040;stroke-linecap:round;stroke-miterlimit:10;stroke-width:2px"/><line x1="459.02" y1="553.91" x2="370.85" y2="546.21" style="fill:none;stroke:#404040;stroke-linecap:round;stroke-miterlimit:10;stroke-width:2px"/><line x1="547.18" y1="555.34" x2="459.02" y2="553.91" style="fill:none;stroke:#404040;stroke-linecap:round;stroke-miterlimit:10;stroke-width:2px"/><line x1="194.52" y1="492.04" x2="106.35" y2="451.1" style="fill:none;stroke:gray;stroke-linecap:round;stroke-miterlimit:10;stroke-width:2px"/><line x1="282.68" y1="529.93" x2="194.52" y2="492.04" style="fill:none;stroke:gray;stroke-linecap:round;stroke-miterlimit:10;stroke-width:2px"/><line x1="370.85" y1="545.53" x2="282.68" y2="529.93" style="fill:none;stroke:gray;stroke-linecap:round;stroke-miterlimit:10;stroke-width:2px"/><line x1="459.02" y1="554.39" x2="370.85" y2="545.53" style="fill:none;stroke:gray;stroke-linecap:round;stroke-miterlimit:10;stroke-width:2px"/><line x1="547.18" y1="555.47" x2="459.02" y2="554.39" style="fill:none;stroke:gray;stroke-linecap:round;stroke-miterlimit:10;stroke-width:2px"/><line x1="194.52" y1="488.63" x2="106.35" y2="428.73" style="fill:none;stroke:#dfdfdf;stroke-linecap:round;stroke-miterlimit:10;stroke-width:2px"/><line x1="282.68" y1="532.8" x2="194.52" y2="488.63" style="fill:none;stroke:#dfdfdf;stroke-linecap:round;stroke-miterlimit:10;stroke-width:2px"/><line x1="370.85" y1="548.29" x2="282.68" y2="532.8" style="fill:none;stroke:#dfdfdf;stroke-linecap:round;stroke-miterlimit:10;stroke-width:2px"/><line x1="459.02" y1="553.74" x2="370.85" y2="548.29" style="fill:none;stroke:#dfdfdf;stroke-linecap:round;stroke-miterlimit:10;stroke-width:2px"/><line x1="547.18" y1="555.47" x2="459.02" y2="553.74" style="fill:none;stroke:#dfdfdf;stroke-linecap:round;stroke-miterlimit:10;stroke-width:2px"/><line x1="194.52" y1="454.46" x2="106.35" y2="51.17" style="fill:none;stroke:#bd1e2d;stroke-linecap:round;stroke-miterlimit:10;stroke-width:3px"/><line x1="282.68" y1="537.15" x2="194.52" y2="454.46" style="fill:none;stroke:#bd1e2d;stroke-linecap:round;stroke-miterlimit:10;stroke-width:3px"/><line x1="370.85" y1="547.15" x2="282.68" y2="537.15" style="fill:none;stroke:#bd1e2d;stroke-linecap:round;stroke-miterlimit:10;stroke-width:3px"/><line x1="459.02" y1="553.91" x2="370.85" y2="547.15" style="fill:none;stroke:#bd1e2d;stroke-linecap:round;stroke-miterlimit:10;stroke-width:3px"/><line x1="547.18" y1="555.47" x2="459.02" y2="553.91" style="fill:none;stroke:#bd1e2d;stroke-linecap:round;stroke-miterlimit:10;stroke-width:3px"/><rect x="103.35" y="411.56" width="6" height="6" style="fill:#606060;stroke:#000;stroke-miterlimit:10;stroke-width:0.5px"/><rect x="191.52" y="482.44" width="6" height="6" style="fill:#606060;stroke:#000;stroke-miterlimit:10;stroke-width:0.5px"/><rect x="279.68" y="529.35" width="6" height="6" style="fill:#606060;stroke:#000;stroke-miterlimit:10;stroke-width:0.5px"/><rect x="367.85" y="543.89" width="6" height="6" style="fill:#606060;stroke:#000;stroke-miterlimit:10;stroke-width:0.5px"/><rect x="456.02" y="550.52" width="6" height="6" style="fill:#606060;stroke:#000;stroke-miterlimit:10;stroke-width:0.5px"/><rect x="544.18" y="551.92" width="6" height="6" style="fill:#606060;stroke:#000;stroke-miterlimit:10;stroke-width:0.5px"/><rect x="103.35" y="422.53" width="6" height="6" style="fill:#bfbfbf;stroke:#000;stroke-miterlimit:10;stroke-width:0.5px"/><rect x="191.52" y="495.27" width="6" height="6" style="fill:#bfbfbf;stroke:#000;stroke-miterlimit:10;stroke-width:0.5px"/><rect x="279.68" y="528.17" width="6" height="6" style="fill:#bfbfbf;stroke:#000;stroke-miterlimit:10;stroke-width:0.5px"/><rect x="367.85" y="544.61" width="6" height="6" style="fill:#bfbfbf;stroke:#000;stroke-miterlimit:10;stroke-width:0.5px"/><rect x="456.02" y="550.78" width="6" height="6" style="fill:#bfbfbf;stroke:#000;stroke-miterlimit:10;stroke-width:0.5px"/><rect x="544.18" y="552.47" width="6" height="6" style="fill:#bfbfbf;stroke:#000;stroke-miterlimit:10;stroke-width:0.5px"/><rect x="103.35" y="374.91" width="6" height="6" style="fill:#202020;stroke:#000;stroke-miterlimit:10;stroke-width:0.5px"/><rect x="191.52" y="487.18" width="6" height="6" style="fill:#202020;stroke:#000;stroke-miterlimit:10;stroke-width:0.5px"/><rect x="279.68" y="529.37" width="6" height="6" style="fill:#202020;stroke:#000;stroke-miterlimit:10;stroke-width:0.5px"/><rect x="367.85" y="544.69" width="6" height="6" style="fill:#202020;stroke:#000;stroke-miterlimit:10;stroke-width:0.5px"/><rect x="456.02" y="550.4" width="6" height="6" style="fill:#202020;stroke:#000;stroke-miterlimit:10;stroke-width:0.5px"/><rect x="544.18" y="552.34" width="6" height="6" style="fill:#202020;stroke:#000;stroke-miterlimit:10;stroke-width:0.5px"/><rect x="103.35" y="402.29" width="6" height="6" style="fill:#9f9f9f;stroke:#000;stroke-miterlimit:10;stroke-width:0.5px"/><rect x="191.52" y="465.87" width="6" height="6" style="fill:#9f9f9f;stroke:#000;stroke-miterlimit:10;stroke-width:0.5px"/><rect x="279.68" y="531.61" width="6" height="6" style="fill:#9f9f9f;stroke:#000;stroke-miterlimit:10;stroke-width:0.5px"/><rect x="367.85" y="543.99" width="6" height="6" style="fill:#9f9f9f;stroke:#000;stroke-miterlimit:10;stroke-width:0.5px"/><rect x="456.02" y="550.84" width="6" height="6" style="fill:#9f9f9f;stroke:#000;stroke-miterlimit:10;stroke-width:0.5px"/><rect x="544.18" y="552.47" width="6" height="6" style="fill:#9f9f9f;stroke:#000;stroke-miterlimit:10;stroke-width:0.5px"/><rect x="103.35" y="426.98" width="6" height="6" style="fill:#404040;stroke:#000;stroke-miterlimit:10;stroke-width:0.5px"/><rect x="191.52" y="507.92" width="6" height="6" style="fill:#404040;stroke:#000;stroke-miterlimit:10;stroke-width:0.5px"/><rect x="279.68" y="528.29" width="6" height="6" style="fill:#404040;stroke:#000;stroke-miterlimit:10;stroke-width:0.5px"/><rect x="367.85" y="545.82" width="6" height="6" style="fill:#404040;stroke:#000;stroke-miterlimit:10;stroke-width:0.5px"/><rect x="456.02" y="551.34" width="6" height="6" style="fill:#404040;stroke:#000;stroke-miterlimit:10;stroke-width:0.5px"/><rect x="544.18" y="552.47" width="6" height="6" style="fill:#404040;stroke:#000;stroke-miterlimit:10;stroke-width:0.5px"/><rect x="103.35" y="430.29" width="6" height="6" style="fill:gray;stroke:#000;stroke-miterlimit:10;stroke-width:0.5px"/><rect x="191.52" y="481.36" width="6" height="6" style="fill:gray;stroke:#000;stroke-miterlimit:10;stroke-width:0.5px"/><rect x="279.68" y="521.38" width="6" height="6" style="fill:gray;stroke:#000;stroke-miterlimit:10;stroke-width:0.5px"/><rect x="367.85" y="544.47" width="6" height="6" style="fill:gray;stroke:#000;stroke-miterlimit:10;stroke-width:0.5px"/><rect x="456.02" y="550.95" width="6" height="6" style="fill:gray;stroke:#000;stroke-miterlimit:10;stroke-width:0.5px"/><rect x="544.18" y="552.47" width="6" height="6" style="fill:gray;stroke:#000;stroke-miterlimit:10;stroke-width:0.5px"/><rect x="103.35" y="412.82" width="6" height="6" style="fill:#dfdfdf;stroke:#000;stroke-miterlimit:10;stroke-width:0.5px"/><rect x="191.52" y="473.43" width="6" height="6" style="fill:#dfdfdf;stroke:#000;stroke-miterlimit:10;stroke-width:0.5px"/><rect x="279.68" y="529.01" width="6" height="6" style="fill:#dfdfdf;stroke:#000;stroke-miterlimit:10;stroke-width:0.5px"/><rect x="367.85" y="546.06" width="6" height="6" style="fill:#dfdfdf;stroke:#000;stroke-miterlimit:10;stroke-width:0.5px"/><rect x="456.02" y="550.32" width="6" height="6" style="fill:#dfdfdf;stroke:#000;stroke-miterlimit:10;stroke-width:0.5px"/><rect x="544.18" y="552.47" width="6" height="6" style="fill:#dfdfdf;stroke:#000;stroke-miterlimit:10;stroke-width:0.5px"/><rect x="103.35" y="410.65" width="6" height="6" style="stroke:#000;stroke-miterlimit:10;stroke-width:0.5px"/><rect x="191.52" y="490.27" width="6" height="6" style="stroke:#000;stroke-miterlimit:10;stroke-width:0.5px"/><rect x="279.68" y="525" width="6" height="6" style="stroke:#000;stroke-miterlimit:10;stroke-width:0.5px"/><rect x="367.85" y="543.32" width="6" height="6" style="stroke:#000;stroke-miterlimit:10;stroke-width:0.5px"/><rect x="456.02" y="550.56" width="6" height="6" style="stroke:#000;stroke-miterlimit:10;stroke-width:0.5px"/><rect x="544.18" y="552.47" width="6" height="6" style="stroke:#000;stroke-miterlimit:10;stroke-width:0.5px"/><rect x="103.35" y="448.1" width="6" height="6" style="fill:#606060;stroke:#000;stroke-miterlimit:10;stroke-width:0.5px"/><rect x="191.52" y="489.04" width="6" height="6" style="fill:#606060;stroke:#000;stroke-miterlimit:10;stroke-width:0.5px"/><rect x="279.68" y="526.93" width="6" height="6" style="fill:#606060;stroke:#000;stroke-miterlimit:10;stroke-width:0.5px"/><rect x="367.85" y="542.53" width="6" height="6" style="fill:#606060;stroke:#000;stroke-miterlimit:10;stroke-width:0.5px"/><rect x="456.02" y="551.39" width="6" height="6" style="fill:#606060;stroke:#000;stroke-miterlimit:10;stroke-width:0.5px"/><rect x="544.18" y="552.47" width="6" height="6" style="fill:#606060;stroke:#000;stroke-miterlimit:10;stroke-width:0.5px"/><rect x="103.35" y="399.21" width="6" height="6" style="fill:#bfbfbf;stroke:#000;stroke-miterlimit:10;stroke-width:0.5px"/><rect x="191.52" y="476.57" width="6" height="6" style="fill:#bfbfbf;stroke:#000;stroke-miterlimit:10;stroke-width:0.5px"/><rect x="279.68" y="535.58" width="6" height="6" style="fill:#bfbfbf;stroke:#000;stroke-miterlimit:10;stroke-width:0.5px"/><rect x="367.85" y="544.15" width="6" height="6" style="fill:#bfbfbf;stroke:#000;stroke-miterlimit:10;stroke-width:0.5px"/><rect x="456.02" y="551.01" width="6" height="6" style="fill:#bfbfbf;stroke:#000;stroke-miterlimit:10;stroke-width:0.5px"/><rect x="544.18" y="552.47" width="6" height="6" style="fill:#bfbfbf;stroke:#000;stroke-miterlimit:10;stroke-width:0.5px"/><rect x="103.35" y="369.92" width="6" height="6" style="fill:#202020;stroke:#000;stroke-miterlimit:10;stroke-width:0.5px"/><rect x="191.52" y="487.75" width="6" height="6" style="fill:#202020;stroke:#000;stroke-miterlimit:10;stroke-width:0.5px"/><rect x="279.68" y="533.33" width="6" height="6" style="fill:#202020;stroke:#000;stroke-miterlimit:10;stroke-width:0.5px"/><rect x="367.85" y="545.56" width="6" height="6" style="fill:#202020;stroke:#000;stroke-miterlimit:10;stroke-width:0.5px"/><rect x="456.02" y="551.01" width="6" height="6" style="fill:#202020;stroke:#000;stroke-miterlimit:10;stroke-width:0.5px"/><rect x="544.18" y="552.47" width="6" height="6" style="fill:#202020;stroke:#000;stroke-miterlimit:10;stroke-width:0.5px"/><rect x="103.35" y="364.41" width="6" height="6" style="fill:#9f9f9f;stroke:#000;stroke-miterlimit:10;stroke-width:0.5px"/><rect x="191.52" y="495.03" width="6" height="6" style="fill:#9f9f9f;stroke:#000;stroke-miterlimit:10;stroke-width:0.5px"/><rect x="279.68" y="520.43" width="6" height="6" style="fill:#9f9f9f;stroke:#000;stroke-miterlimit:10;stroke-width:0.5px"/><rect x="367.85" y="547.46" width="6" height="6" style="fill:#9f9f9f;stroke:#000;stroke-miterlimit:10;stroke-width:0.5px"/><rect x="456.02" y="550.84" width="6" height="6" style="fill:#9f9f9f;stroke:#000;stroke-miterlimit:10;stroke-width:0.5px"/><rect x="544.18" y="552.47" width="6" height="6" style="fill:#9f9f9f;stroke:#000;stroke-miterlimit:10;stroke-width:0.5px"/><rect x="103.35" y="433.39" width="6" height="6" style="fill:#404040;stroke:#000;stroke-miterlimit:10;stroke-width:0.5px"/><rect x="191.52" y="464.64" width="6" height="6" style="fill:#404040;stroke:#000;stroke-miterlimit:10;stroke-width:0.5px"/><rect x="279.68" y="530.47" width="6" height="6" style="fill:#404040;stroke:#000;stroke-miterlimit:10;stroke-width:0.5px"/><rect x="367.85" y="543.21" width="6" height="6" style="fill:#404040;stroke:#000;stroke-miterlimit:10;stroke-width:0.5px"/><rect x="456.02" y="550.91" width="6" height="6" style="fill:#404040;stroke:#000;stroke-miterlimit:10;stroke-width:0.5px"/><rect x="544.18" y="552.34" width="6" height="6" style="fill:#404040;stroke:#000;stroke-miterlimit:10;stroke-width:0.5px"/><rect x="103.35" y="448.1" width="6" height="6" style="fill:gray;stroke:#000;stroke-miterlimit:10;stroke-width:0.5px"/><rect x="191.52" y="489.04" width="6" height="6" style="fill:gray;stroke:#000;stroke-miterlimit:10;stroke-width:0.5px"/><rect x="279.68" y="526.93" width="6" height="6" style="fill:gray;stroke:#000;stroke-miterlimit:10;stroke-width:0.5px"/><rect x="367.85" y="542.53" width="6" height="6" style="fill:gray;stroke:#000;stroke-miterlimit:10;stroke-width:0.5px"/><rect x="456.02" y="551.39" width="6" height="6" style="fill:gray;stroke:#000;stroke-miterlimit:10;stroke-width:0.5px"/><rect x="544.18" y="552.47" width="6" height="6" style="fill:gray;stroke:#000;stroke-miterlimit:10;stroke-width:0.5px"/><rect x="103.35" y="425.73" width="6" height="6" style="fill:#dfdfdf;stroke:#000;stroke-miterlimit:10;stroke-width:0.5px"/><rect x="191.52" y="485.63" width="6" height="6" style="fill:#dfdfdf;stroke:#000;stroke-miterlimit:10;stroke-width:0.5px"/><rect x="279.68" y="529.8" width="6" height="6" style="fill:#dfdfdf;stroke:#000;stroke-miterlimit:10;stroke-width:0.5px"/><rect x="367.85" y="545.29" width="6" height="6" style="fill:#dfdfdf;stroke:#000;stroke-miterlimit:10;stroke-width:0.5px"/><rect x="456.02" y="550.74" width="6" height="6" style="fill:#dfdfdf;stroke:#000;stroke-miterlimit:10;stroke-width:0.5px"/><rect x="544.18" y="552.47" width="6" height="6" style="fill:#dfdfdf;stroke:#000;stroke-miterlimit:10;stroke-width:0.5px"/><rect x="103.35" y="48.17" width="6" height="6" style="fill:#e5e6e7;stroke:#000;stroke-miterlimit:10;stroke-width:0.5px"/><rect x="191.52" y="451.46" width="6" height="6" style="fill:#e5e6e7;stroke:#000;stroke-miterlimit:10;stroke-width:0.5px"/><rect x="279.68" y="534.15" width="6" height="6" style="fill:#e5e6e7;stroke:#000;stroke-miterlimit:10;stroke-width:0.5px"/><rect x="367.85" y="544.15" width="6" height="6" style="fill:#e5e6e7;stroke:#000;stroke-miterlimit:10;stroke-width:0.5px"/><rect x="456.02" y="550.91" width="6" height="6" style="fill:#e5e6e7;stroke:#000;stroke-miterlimit:10;stroke-width:0.5px"/><rect x="544.18" y="552.47" width="6" height="6" style="fill:#e5e6e7;stroke:#000;stroke-miterlimit:10;stroke-width:0.5px"/><path d="M534.65,577.52c-.1-2.48,1.24-3.75,3-3.75a7.71,7.71,0,0,1,3.49,1.12,8,8,0,0,0,3.1,1c.9,0,1.32-.72,1.34-2.08H547c.12,2.77-1.31,3.74-2.85,3.74a8.44,8.44,0,0,1-3.6-1.09,7.55,7.55,0,0,0-3-1.09c-.89,0-1.44.62-1.49,2.11Z"/><path d="M559,568.44H552.8l-.62,4.14a8.52,8.52,0,0,1,1.31-.1,6.75,6.75,0,0,1,3.47.87,4.59,4.59,0,0,1,2.31,4.14c0,3.15-2.5,5.51-6,5.51a7.86,7.86,0,0,1-4-1l.55-1.66a7.15,7.15,0,0,0,3.44.9,3.56,3.56,0,0,0,3.82-3.5c0-2.08-1.41-3.57-4.63-3.57a17.71,17.71,0,0,0-2.24.17l1-7.73H559Z"/><path d="M440.12,577.52c-.1-2.48,1.24-3.75,2.95-3.75a7.74,7.74,0,0,1,3.5,1.12,7.88,7.88,0,0,0,3.1,1c.89,0,1.31-.72,1.34-2.08h1.48c.13,2.77-1.31,3.74-2.85,3.74a8.4,8.4,0,0,1-3.59-1.09,7.64,7.64,0,0,0-3-1.09c-.89,0-1.44.62-1.49,2.11Z"/><path d="M464,568.14a8.19,8.19,0,0,0-1.64.1,6.55,6.55,0,0,0-5.6,5.73h.07a4.8,4.8,0,0,1,3.9-1.86c2.85,0,4.86,2.06,4.86,5.21a5.39,5.39,0,0,1-5.36,5.68c-3.45,0-5.7-2.68-5.7-6.87a10.17,10.17,0,0,1,2.72-7.27,8.83,8.83,0,0,1,5.16-2.38,10.34,10.34,0,0,1,1.59-.12Zm-.62,9.3c0-2.31-1.31-3.69-3.32-3.69a3.59,3.59,0,0,0-3.13,2,1.85,1.85,0,0,0-.25,1c.05,2.65,1.27,4.61,3.55,4.61C462.12,581.31,463.38,579.75,463.38,577.44Z"/><path d="M478.23,574.49c0,5.48-2,8.51-5.6,8.51-3.15,0-5.28-3-5.33-8.29s2.33-8.38,5.6-8.38S478.23,569.36,478.23,574.49Zm-8.75.25c0,4.19,1.29,6.57,3.27,6.57,2.23,0,3.3-2.6,3.3-6.72s-1-6.57-3.27-6.57C470.87,568,469.48,570.35,469.48,574.74Z"/><path d="M352.5,577.52c-.1-2.48,1.24-3.75,2.95-3.75a7.74,7.74,0,0,1,3.5,1.12,7.88,7.88,0,0,0,3.1,1c.89,0,1.31-.72,1.33-2.08h1.49c.13,2.77-1.31,3.74-2.85,3.74a8.4,8.4,0,0,1-3.59-1.09,7.64,7.64,0,0,0-3-1.09c-.89,0-1.44.62-1.49,2.11Z"/><path d="M371.91,568.64h-.05l-2.8,1.51-.42-1.66,3.52-1.88H374v16.11h-2.11Z"/><path d="M382.75,576.23h.05c.3-.43.72-1,1.07-1.37l3.52-4.14H390l-4.64,4.94,5.28,7.06H388L383.87,577l-1.12,1.24v4.51h-2.16v-17.6h2.16Z"/><path d="M264.33,577.52c-.1-2.48,1.24-3.75,2.95-3.75a7.74,7.74,0,0,1,3.5,1.12,7.88,7.88,0,0,0,3.1,1c.89,0,1.31-.72,1.34-2.08h1.49c.12,2.77-1.32,3.74-2.86,3.74a8.4,8.4,0,0,1-3.59-1.09,7.58,7.58,0,0,0-3-1.09c-.89,0-1.43.62-1.48,2.11Z"/><path d="M280.28,581.19a8.72,8.72,0,0,0,1.76-.08,6.05,6.05,0,0,0,3.37-1.56,7.07,7.07,0,0,0,2.13-4.29h-.07a4.75,4.75,0,0,1-3.8,1.74,4.67,4.67,0,0,1-4.76-4.94,5.53,5.53,0,0,1,5.51-5.73c3.3,0,5.33,2.68,5.33,6.8a10.18,10.18,0,0,1-2.78,7.56,8.1,8.1,0,0,1-4.68,2.16,10.07,10.07,0,0,1-2,.12Zm.79-9.28a3.1,3.1,0,0,0,3.1,3.42,3.61,3.61,0,0,0,3.17-1.68,1.41,1.41,0,0,0,.2-.8c0-2.75-1-4.86-3.3-4.86C282.38,568,281.07,569.63,281.07,571.91Z"/><path d="M294.58,576.23h.05c.3-.43.72-1,1.07-1.37l3.52-4.14h2.63l-4.64,4.94,5.28,7.06h-2.65L295.7,577l-1.12,1.24v4.51h-2.15v-17.6h2.15Z"/><path d="M168.9,577.52c-.1-2.48,1.24-3.75,2.95-3.75a7.74,7.74,0,0,1,3.5,1.12,7.88,7.88,0,0,0,3.1,1c.89,0,1.31-.72,1.34-2.08h1.48c.13,2.77-1.31,3.74-2.85,3.74a8.4,8.4,0,0,1-3.59-1.09,7.64,7.64,0,0,0-3-1.09c-.89,0-1.44.62-1.49,2.11Z"/><path d="M194,566.61V568l-7,14.68h-2.26l7-14.26v0h-7.88v-1.81Z"/><path d="M196.3,582.72v-1.34l1.71-1.66c4.12-3.92,6-6,6-8.43a2.88,2.88,0,0,0-3.2-3.15,5.51,5.51,0,0,0-3.42,1.37L196.7,568a7.07,7.07,0,0,1,4.56-1.64,4.53,4.53,0,0,1,4.93,4.69c0,3-2.15,5.38-5.55,8.65l-1.29,1.19v0h7.24v1.81Z"/><path d="M209.79,566H212v8.06H212c.45-.65.89-1.24,1.32-1.79l5.1-6.27h2.68l-6.05,7.09,6.52,9.62H219l-5.51-8.2L212,576.35v6.37h-2.16Z"/><path d="M75.28,577.52c-.1-2.48,1.24-3.75,3-3.75a7.78,7.78,0,0,1,3.5,1.12,7.88,7.88,0,0,0,3.1,1c.89,0,1.31-.72,1.33-2.08h1.49c.13,2.77-1.31,3.74-2.85,3.74a8.4,8.4,0,0,1-3.59-1.09,7.64,7.64,0,0,0-3-1.09c-.89,0-1.44.62-1.49,2.11Z"/><path d="M90.48,580.22a7.26,7.26,0,0,0,3.57,1c2.8,0,3.67-1.79,3.65-3.13,0-2.26-2.06-3.22-4.17-3.22H92.31v-1.64h1.22c1.59,0,3.59-.82,3.59-2.73,0-1.29-.81-2.43-2.82-2.43a5.93,5.93,0,0,0-3.23,1.07l-.57-1.59a7.69,7.69,0,0,1,4.22-1.24c3.17,0,4.61,1.89,4.61,3.85a4,4,0,0,1-3,3.79v0a4.2,4.2,0,0,1,3.59,4.14c0,2.58-2,4.84-5.87,4.84a8.25,8.25,0,0,1-4.2-1.1Z"/><path d="M103.2,580.22a7.26,7.26,0,0,0,3.57,1c2.8,0,3.67-1.79,3.65-3.13,0-2.26-2.06-3.22-4.17-3.22H105v-1.64h1.22c1.59,0,3.6-.82,3.6-2.73,0-1.29-.82-2.43-2.83-2.43a5.93,5.93,0,0,0-3.23,1.07l-.57-1.59a7.69,7.69,0,0,1,4.22-1.24c3.17,0,4.61,1.89,4.61,3.85a4,4,0,0,1-3,3.79v0a4.2,4.2,0,0,1,3.59,4.14c0,2.58-2,4.84-5.87,4.84a8.25,8.25,0,0,1-4.2-1.1Z"/><path d="M115.92,580.22a7.26,7.26,0,0,0,3.57,1c2.8,0,3.67-1.79,3.65-3.13,0-2.26-2.06-3.22-4.17-3.22h-1.21v-1.64H119c1.59,0,3.6-.82,3.6-2.73,0-1.29-.82-2.43-2.83-2.43a5.86,5.86,0,0,0-3.22,1.07l-.57-1.59a7.62,7.62,0,0,1,4.21-1.24c3.17,0,4.61,1.89,4.61,3.85a4,4,0,0,1-3,3.79v0a4.2,4.2,0,0,1,3.59,4.14c0,2.58-2,4.84-5.87,4.84a8.18,8.18,0,0,1-4.19-1.1Z"/><path d="M131,576.23H131c.3-.43.72-1,1.07-1.37l3.52-4.14h2.63l-4.64,4.94,5.28,7.06h-2.65L132.09,577,131,578.21v4.51h-2.16v-17.6H131Z"/><path d="M354.91,358.73a.39.39,0,0,1-.08.38,1,1,0,0,1-.34.26,1.74,1.74,0,0,1-.41.16l-.29.08a.92.92,0,0,1-1-.36,5.06,5.06,0,0,1-.8-1.59c-.25-.72-.5-1.59-.76-2.62s-.53-2.18-.84-3.44-.69-2.61-1.11-4.06-.95-2.94-1.56-4.5c.1-.36.24-.59.44-.67a.8.8,0,0,1,.61,0,2.44,2.44,0,0,1,.63.34c.2.16.37.29.49.4a4.76,4.76,0,0,1,1.67-1.55,13.71,13.71,0,0,1,2.59-1.17,17.26,17.26,0,0,1,3-.71,16.71,16.71,0,0,1,2.9-.21,7.81,7.81,0,0,1,2.32.35,1.81,1.81,0,0,1,1.23,1,2,2,0,0,1-.34,1.67,9.91,9.91,0,0,1-2.43,2.42c-.19.15-.48.36-.88.63s-.84.59-1.35.93-1,.69-1.57,1.06l-1.55,1.08c-.48.35-.91.67-1.27.95a4.42,4.42,0,0,0-.74.67.32.32,0,0,0,.17.21,3.9,3.9,0,0,0,.63.19c.32.09.81.2,1.46.35l2.7.64c1.14.28,2.57.63,4.29,1.07s3.81,1,6.29,1.65l.33.13a1.41,1.41,0,0,1,.39.19,1.83,1.83,0,0,1,.35.25.72.72,0,0,1,.22.35.53.53,0,0,1-.11.5,1.68,1.68,0,0,1-.49.36,3.25,3.25,0,0,1-.64.24l-.56.16a3,3,0,0,1-1.27-.17c-.62-.18-1.37-.41-2.24-.7s-1.83-.63-2.86-1-2.09-.73-3.15-1.07-2.09-.62-3.1-.86a16.3,16.3,0,0,0-2.69-.46Zm-4.18-14a1.93,1.93,0,0,0,0,.91,4.54,4.54,0,0,0,.31,1.1,6.65,6.65,0,0,0,.54,1,1.86,1.86,0,0,0,.59.62,2.19,2.19,0,0,0,.95-.31c.44-.23,1-.53,1.56-.9s1.23-.79,1.89-1.27,1.3-1,1.89-1.45,1.1-1,1.56-1.42a4.57,4.57,0,0,0,.91-1.21.66.66,0,0,0,0-.79c-.19-.18-.63-.24-1.33-.19-.33.09-.76.21-1.3.34l-1.72.47c-.61.18-1.23.38-1.87.6a14.16,14.16,0,0,0-1.75.73,7.86,7.86,0,0,0-1.39.84A2.19,2.19,0,0,0,350.73,344.76Z" style="fill:#339"/><path d="M382.34,347.37a10,10,0,0,1-1,2.25,9.08,9.08,0,0,1-1.51,1.91,8.44,8.44,0,0,1-2,1.45,8.68,8.68,0,0,1-2.5.85,5.53,5.53,0,0,1-1.05.15,3.35,3.35,0,0,1-1.1-.09,2.22,2.22,0,0,1-.94-.45,1.75,1.75,0,0,1-.57-.94,5.86,5.86,0,0,1-.58-2.6,9.75,9.75,0,0,1,.42-2.8,11.39,11.39,0,0,1,1.24-2.74,12.37,12.37,0,0,1,1.85-2.36,9.62,9.62,0,0,1,2.26-1.71,6.11,6.11,0,0,1,2.5-.77,1.89,1.89,0,0,1,1.61.22,4.18,4.18,0,0,1,1.22,1.43,12.58,12.58,0,0,1,1,2.25c.29.87.57,1.77.85,2.7s.57,1.84.87,2.74a14.55,14.55,0,0,0,1,2.41l-1.68.44c-.21-.49-.39-.93-.53-1.31l-.4-1.07c-.12-.33-.25-.65-.39-.95S382.54,347.74,382.34,347.37ZM379,341.79a4.64,4.64,0,0,0-1.75.73,8,8,0,0,0-1.58,1.34,9.71,9.71,0,0,0-1.28,1.75,12,12,0,0,0-.91,1.93,7.81,7.81,0,0,0-.43,1.85,3.65,3.65,0,0,0,.14,1.55,2,2,0,0,0,.82,1,2.54,2.54,0,0,0,1.58.26,6,6,0,0,0,2.43-1.39,9.75,9.75,0,0,0,1.79-2.26,10.81,10.81,0,0,0,1.08-2.57,7.55,7.55,0,0,0,.28-2.34,2.45,2.45,0,0,0-.61-1.58A1.48,1.48,0,0,0,379,341.79Z" style="fill:#339"/><path d="M394.9,337.09c0-.27-.11-.38-.45-.32a4.89,4.89,0,0,0-1.33.46,15.77,15.77,0,0,0-1.79,1,14.62,14.62,0,0,0-1.81,1.34,9.13,9.13,0,0,0-1.4,1.48,2.38,2.38,0,0,0-.57,1.37l2,7.7-1.88.5a3.82,3.82,0,0,1-.49-.95c-.17-.44-.36-1-.56-1.59s-.4-1.3-.6-2-.4-1.47-.58-2.22-.36-1.49-.52-2.21-.31-1.39-.43-2-.21-1.1-.28-1.51a4.34,4.34,0,0,1-.09-.84,4.26,4.26,0,0,1,.47-.49,1.55,1.55,0,0,1,.6-.33.64.64,0,0,1,.69.39,4.36,4.36,0,0,1,.46,1.11,12.1,12.1,0,0,1,.26,1.28,7.16,7.16,0,0,0,.14.86,25.75,25.75,0,0,1,3.37-3.62,8.36,8.36,0,0,1,2.64-1.61,2.78,2.78,0,0,1,2,0,4,4,0,0,1,1.52,1.34,10.07,10.07,0,0,1,1.16,2.3c.33.91.64,1.87.94,2.89s.57,2.07.84,3.14.55,2.08.86,3a1.76,1.76,0,0,1-.34.26.48.48,0,0,1-.22.05h-.35a3.91,3.91,0,0,0-.66.1,12.5,12.5,0,0,1-1-2.45c-.28-1-.54-1.92-.79-2.92s-.53-2-.82-3A14.72,14.72,0,0,0,394.9,337.09Z" style="fill:#339"/><path d="M411.72,341.18a21.78,21.78,0,0,1-2.6,2.84,9,9,0,0,1-2.77,1.77,5.19,5.19,0,0,1-2.86.3,3.89,3.89,0,0,1-3.62-4.41,7.11,7.11,0,0,1,.55-2.72,9,9,0,0,1,1.54-2.43,10.87,10.87,0,0,1,2.22-1.95,9.93,9.93,0,0,1,2.66-1.24,8.22,8.22,0,0,1,2.85-.36q-.09-.33-.24-1.05c-.11-.47-.22-1-.35-1.6s-.26-1.23-.4-1.88-.28-1.29-.4-1.89-.23-1.13-.32-1.6-.16-.81-.21-1-.11-.71-.14-1a2.24,2.24,0,0,1,.07-.87,1.49,1.49,0,0,1,.41-.68,2.12,2.12,0,0,1,.89-.45q.74,2.72,1.26,5.34t1.11,5.27q.57,2.65,1.32,5.37a51,51,0,0,0,1.9,5.62,1.52,1.52,0,0,1,0,1,1.05,1.05,0,0,1-.73.49,1,1,0,0,1-.93-.13,2.09,2.09,0,0,1-.61-.73,5,5,0,0,1-.37-1Zm-9.5,1.59a2,2,0,0,0,1,1.33,2,2,0,0,0,1.62-.16,6.25,6.25,0,0,0,1.39-.65,20.36,20.36,0,0,0,1.86-1.22,21.11,21.11,0,0,0,1.73-1.46,4.27,4.27,0,0,0,1-1.39l-1-3.75a.83.83,0,0,0-.32-.5,1,1,0,0,0-.51-.19,1.89,1.89,0,0,0-.58,0,4,4,0,0,0-.49.11,4.11,4.11,0,0,0-1.39.46,8.25,8.25,0,0,0-1.51,1,10,10,0,0,0-1.4,1.37,7.94,7.94,0,0,0-1.08,1.63,5.73,5.73,0,0,0-.56,1.73A3.23,3.23,0,0,0,402.22,342.77Z" style="fill:#339"/><path d="M415.83,337.67a6.06,6.06,0,0,1,0-3.4,7.86,7.86,0,0,1,1.47-2.75,9.73,9.73,0,0,1,2.35-2.08,14.75,14.75,0,0,1,2.65-1.35,6.46,6.46,0,0,1,2.51-.32,5.9,5.9,0,0,1,2.25.6,5.22,5.22,0,0,1,1.72,1.38,4.35,4.35,0,0,1,.89,2,7.11,7.11,0,0,1,.13,3.44,7.23,7.23,0,0,1-1.33,2.86,8.65,8.65,0,0,1-2.47,2.16,12.65,12.65,0,0,1-3.26,1.38,6.11,6.11,0,0,1-4.38-.16C417.17,340.86,416.34,339.61,415.83,337.67Zm2.13.16a3.86,3.86,0,0,0,.64,1.45,1.83,1.83,0,0,0,.93.67,3.27,3.27,0,0,0,1.23.07,12.13,12.13,0,0,0,1.58-.33,13.41,13.41,0,0,0,2.55-1,6.84,6.84,0,0,0,2-1.49,5,5,0,0,0,1.12-2.07,5.46,5.46,0,0,0-.1-2.73,5.82,5.82,0,0,0-.63-1.44,3.57,3.57,0,0,0-1-1.06,3.27,3.27,0,0,0-1.33-.55,3.42,3.42,0,0,0-1.58.08c-.71.32-1.41.65-2.11,1a6.53,6.53,0,0,0-1.85,1.42,5.77,5.77,0,0,0-1.23,2.29A9.83,9.83,0,0,0,418,337.83Z" style="fill:#339"/><path d="M432.72,338.41c-.18-.61-.37-1.4-.57-2.36s-.43-2-.68-3.07-.53-2.17-.83-3.27a28.39,28.39,0,0,0-1-2.95.76.76,0,0,1,.17-.81,1.84,1.84,0,0,1,.81-.42c.12,0,.26.08.42.35a9.76,9.76,0,0,1,.48,1c.16.37.31.74.45,1.1a6.28,6.28,0,0,0,.36.78,3.6,3.6,0,0,1,.82-1.53,7.3,7.3,0,0,1,1.54-1.32,8.34,8.34,0,0,1,1.91-.9,5.41,5.41,0,0,1,1.95-.29,3,3,0,0,1,1.64.52,2.5,2.5,0,0,1,1,1.54,4.49,4.49,0,0,1,.91-1.69,11.39,11.39,0,0,1,1.74-1.73,12.9,12.9,0,0,1,2.15-1.42,8.41,8.41,0,0,1,2.17-.83,3,3,0,0,1,1.78.1,1.72,1.72,0,0,1,1,1.33l3.44,10.36s-.11.1-.35.22a5.87,5.87,0,0,1-.79.33,4.87,4.87,0,0,1-.85.19c-.27,0-.42,0-.46-.18-.25-.83-.48-1.7-.68-2.62s-.42-1.86-.66-2.8-.52-1.85-.84-2.75a10.94,10.94,0,0,0-1.2-2.45,12.46,12.46,0,0,0-1.41.58,6.91,6.91,0,0,0-1.48,1,6.48,6.48,0,0,0-1.29,1.48,6.81,6.81,0,0,0-.85,2.22,12.51,12.51,0,0,0-.19,3.11,19.78,19.78,0,0,0,.71,4.16.73.73,0,0,1-.4.64,2.46,2.46,0,0,1-.85.3,2.36,2.36,0,0,1-.84,0c-.25-.06-.37-.15-.35-.28-.08-.82-.15-1.55-.22-2.18s-.16-1.2-.27-1.72a13.27,13.27,0,0,0-.38-1.45,10.69,10.69,0,0,0-.52-1.35c-.2-.46-.44-.94-.71-1.44s-.59-1.07-1-1.72a7.4,7.4,0,0,0-2.48,1.11,5.34,5.34,0,0,0-1.48,1.61,5.26,5.26,0,0,0-.66,2,9.84,9.84,0,0,0,0,2.24,14.45,14.45,0,0,0,.44,2.35c.21.8.46,1.59.73,2.36l-.73.52a2.6,2.6,0,0,1-.82.4.64.64,0,0,1-.41,0A1.1,1.1,0,0,1,432.72,338.41Z" style="fill:#339"/><path d="M466,327.22a.91.91,0,0,1,0-.58,3.89,3.89,0,0,1,.31-.61,5.64,5.64,0,0,1,.38-.51,3.25,3.25,0,0,0,.27-.32,2.45,2.45,0,0,0,1.15,1.54,3.34,3.34,0,0,0,1.86.32,7.81,7.81,0,0,0,2.26-.61,17.18,17.18,0,0,0,2.4-1.25,18.21,18.21,0,0,0,2.21-1.62,16.71,16.71,0,0,0,1.74-1.72,5.39,5.39,0,0,0,1-1.51.94.94,0,0,0-.07-1.05l-12.45.52a3.28,3.28,0,0,1-.62-.08,6.14,6.14,0,0,1-.73-.22,2.83,2.83,0,0,1-.62-.34.88.88,0,0,1-.35-.48,3,3,0,0,1,.26-2.16,7.91,7.91,0,0,1,1.58-2.11,17.67,17.67,0,0,1,2.39-1.94c.91-.61,1.79-1.16,2.67-1.65s1.68-.89,2.42-1.22,1.31-.56,1.68-.69a1.8,1.8,0,0,0,.54,0,3.81,3.81,0,0,1,.75-.07,2.19,2.19,0,0,1,.66.09.41.41,0,0,1,.27.44.77.77,0,0,1-.29.81,5.65,5.65,0,0,1-1.19.85c-.52.28-1.11.56-1.79.85s-1.37.59-2.07.91-1.4.65-2.06,1a11.58,11.58,0,0,0-1.76,1.1,4.66,4.66,0,0,0-1.15,1.22,1.74,1.74,0,0,0-.23,1.37s.08.08.21.1a4.94,4.94,0,0,0,.71,0h4c1,0,2.32,0,3.84,0l5.43.08a2.84,2.84,0,0,1,.66,1.62,3.47,3.47,0,0,1-.36,1.69,7.67,7.67,0,0,1-1.16,1.7,13.79,13.79,0,0,1-1.69,1.63,20.4,20.4,0,0,1-2,1.45c-.7.46-1.37.86-2,1.23a20.27,20.27,0,0,1-1.82.9,10.13,10.13,0,0,1-1.39.48,7.61,7.61,0,0,1-1.36.18,10.48,10.48,0,0,1-1.85-.05,6.45,6.45,0,0,1-1.73-.42A1.43,1.43,0,0,1,466,327.22Z" style="fill:#339"/><path d="M484.48,321.05a8.9,8.9,0,0,1-.61-3.67,9.3,9.3,0,0,1,.85-3.53,8.49,8.49,0,0,1,2.14-2.84,7.59,7.59,0,0,1,3.27-1.66,4.63,4.63,0,0,1,.87-.14,8,8,0,0,1,1.21,0,8.55,8.55,0,0,1,1.31.17,4.62,4.62,0,0,1,1.2.43,2.81,2.81,0,0,1,.92.74,2,2,0,0,1,.42,1.11,6.11,6.11,0,0,1-1.9,1.48,20.83,20.83,0,0,1-2.37,1l-2.41.84a7.31,7.31,0,0,0-2,1,2.91,2.91,0,0,0-1.1,1.44,3.21,3.21,0,0,0,.27,2.2,3.39,3.39,0,0,0,1.61,1.54,3.74,3.74,0,0,0,2,.22,7,7,0,0,0,2.17-.7,18.44,18.44,0,0,0,2.11-1.23c.68-.46,1.31-.92,1.88-1.38l1.42-1.13a.69.69,0,0,1,.56.08.81.81,0,0,1,.34.45,5.74,5.74,0,0,1-1.26,2.21,10.8,10.8,0,0,1-2.27,1.94,12.87,12.87,0,0,1-2.86,1.4,9.75,9.75,0,0,1-3,.57,6.31,6.31,0,0,1-2.74-.55A4.41,4.41,0,0,1,484.48,321.05Zm5.9-9.95a6,6,0,0,0-1,.36,4.61,4.61,0,0,0-1.05.62,3.1,3.1,0,0,0-.78.84,1.23,1.23,0,0,0-.15,1l5.37-2.43a2.05,2.05,0,0,0-1.15-.52A3.22,3.22,0,0,0,490.38,311.1Z" style="fill:#339"/><path d="M498.6,311.52l-.57-1.94,4.23-1.13-2-7.31a1.22,1.22,0,0,1,.2-.59,2,2,0,0,1,.42-.48.89.89,0,0,1,.55-.18.86.86,0,0,1,.61.28,13.72,13.72,0,0,1,.82,1.79c.23.61.43,1.22.62,1.84s.36,1.25.53,1.87.37,1.24.58,1.83a8.15,8.15,0,0,1,1-.35l1.14-.33,1.13-.32,1-.33.45,2.06-4.15,1c.24.94.47,1.81.7,2.59s.45,1.56.68,2.31.45,1.51.67,2.29.46,1.64.71,2.56c-.55.43-1,.59-1.39.46a1.89,1.89,0,0,1-1-.92,7.76,7.76,0,0,1-.71-1.82c-.19-.74-.39-1.5-.57-2.29s-.38-1.53-.57-2.26a8.15,8.15,0,0,0-.7-1.8Z" style="fill:#339"/><path d="M516.05,316.08a21.7,21.7,0,0,0,2.67-2,18.23,18.23,0,0,0,2-2,4.72,4.72,0,0,0,.93-1.59c.11-.45,0-.72-.42-.83a4.14,4.14,0,0,0-2.05.35,27.17,27.17,0,0,0-4,1.91,3.87,3.87,0,0,1-1.54.08,4.26,4.26,0,0,1-1.29-.43,3.28,3.28,0,0,1-.95-.76,2.46,2.46,0,0,1-.5-.92,2.77,2.77,0,0,1,.11-1.62,6.73,6.73,0,0,1,1-1.76,11.67,11.67,0,0,1,1.67-1.72,14.23,14.23,0,0,1,2.15-1.5,14.84,14.84,0,0,1,2.43-1.11,10.15,10.15,0,0,1,2.54-.55.73.73,0,0,1,1,.39,12.68,12.68,0,0,1,.63,1.91,8.14,8.14,0,0,0-2.16-.08,11,11,0,0,0-4.23,1.32,6.9,6.9,0,0,0-1.6,1.2,4.4,4.4,0,0,0-1,1.49,2.68,2.68,0,0,0-.11,1.68.61.61,0,0,0,.54.52,2.36,2.36,0,0,0,.92-.1,7,7,0,0,0,1-.4,4.89,4.89,0,0,1,.87-.34,19.21,19.21,0,0,1,4.61-1.82,3.66,3.66,0,0,1,2.48.11,1.4,1.4,0,0,1,.6,1.53,6.35,6.35,0,0,1-1,2.45,17.17,17.17,0,0,1-2.4,2.86,22.6,22.6,0,0,1-3.5,2.77.37.37,0,0,1-.3-.1l-.39-.32-.37-.36A1.91,1.91,0,0,0,516.05,316.08Z" style="fill:#339"/><path d="M338.17,193.2a7.8,7.8,0,0,0,1.67-.24c.7-.17,1.45-.36,2.27-.6s1.67-.49,2.56-.76,1.74-.51,2.55-.73,1.55-.39,2.23-.51a6.5,6.5,0,0,1,1.64-.14l.37,1.41a19.36,19.36,0,0,1-2.07.7c-.88.25-1.83.52-2.84.79s-2,.59-3,.91a16.32,16.32,0,0,0-2.56,1c0,.65.07,1.2.12,1.63s.11.8.17,1.12.13.6.21.87.17.56.28.86l.35,1.06c.14.4.28.9.44,1.49a26.6,26.6,0,0,0,2.78-.91c.88-.34,1.76-.69,2.62-1.06s1.74-.73,2.62-1.07a25.82,25.82,0,0,1,2.74-.89l.41,1.54L343.27,204l1.4,4.59c1.42-.38,2.69-.76,3.81-1.15s2.2-.77,3.21-1.14l3-1.08c1-.36,2.05-.68,3.19-1a1.87,1.87,0,0,1,0,.64,2.53,2.53,0,0,1-.19.73,1.58,1.58,0,0,1-.4.57.5.5,0,0,1-.57.09c-1,.4-2.12.82-3.35,1.27l-3.74,1.37L346,210.19l-3.09,1.1Z" style="fill:#339"/><path d="M369.81,199.06a10.91,10.91,0,0,1-1,2.25,9.39,9.39,0,0,1-1.52,1.91,8.19,8.19,0,0,1-2,1.45,8.44,8.44,0,0,1-2.51.84,4.63,4.63,0,0,1-1,.16,3.68,3.68,0,0,1-1.11-.09,2.18,2.18,0,0,1-.93-.45,1.75,1.75,0,0,1-.57-.94,5.87,5.87,0,0,1-.59-2.6,9.89,9.89,0,0,1,.43-2.81,11.47,11.47,0,0,1,1.23-2.73,12.78,12.78,0,0,1,1.85-2.36,9.83,9.83,0,0,1,2.26-1.71,6.15,6.15,0,0,1,2.5-.77,1.88,1.88,0,0,1,1.62.22,4.22,4.22,0,0,1,1.21,1.42,12.28,12.28,0,0,1,1,2.26q.42,1.3.84,2.7c.28.92.57,1.84.87,2.74a14.93,14.93,0,0,0,1,2.4l-1.67.45c-.21-.49-.39-.93-.54-1.31L370.7,201c-.12-.33-.25-.65-.39-1S370,199.43,369.81,199.06Zm-3.34-5.58a4.83,4.83,0,0,0-1.76.72,8.38,8.38,0,0,0-1.58,1.35,10.22,10.22,0,0,0-1.28,1.75,11.55,11.55,0,0,0-.9,1.93,7.86,7.86,0,0,0-.44,1.85,3.49,3.49,0,0,0,.15,1.55,1.93,1.93,0,0,0,.82,1,2.58,2.58,0,0,0,1.57.26,6,6,0,0,0,2.43-1.4,9.68,9.68,0,0,0,1.8-2.25,10.38,10.38,0,0,0,1.07-2.57,7.29,7.29,0,0,0,.28-2.34,2.49,2.49,0,0,0-.6-1.59A1.5,1.5,0,0,0,366.47,193.48Z" style="fill:#339"/><path d="M371.22,189.83a.57.57,0,0,1,.15-.65,1.69,1.69,0,0,1,.63-.31,1.13,1.13,0,0,1,1.07.23,4,4,0,0,1,.85,1,7.88,7.88,0,0,1,.61,1.19c.16.4.29.69.36.86a14.57,14.57,0,0,1,1.5-1.93,12.86,12.86,0,0,1,2-1.74,14,14,0,0,1,2.67-1.44,18.36,18.36,0,0,1,3.5-1.05.85.85,0,0,1,1,0,1.72,1.72,0,0,1,.6.84,2.33,2.33,0,0,1,.12,1.11,1,1,0,0,1-.48.79,4.22,4.22,0,0,0-2.12-.25,8.11,8.11,0,0,0-2.33.64,10.58,10.58,0,0,0-2.21,1.3,9.07,9.07,0,0,0-1.76,1.8,5.9,5.9,0,0,0-1,2.11,3.83,3.83,0,0,0,.12,2.22,11.27,11.27,0,0,0,.46,1.35c.18.42.37.85.55,1.28s.37.85.55,1.28a9.9,9.9,0,0,1,.45,1.33,5.36,5.36,0,0,0-.94.42,2.11,2.11,0,0,1-.59.27.59.59,0,0,1-.49-.11,3,3,0,0,1-.64-.76c-.05-.11-.17-.41-.37-.93s-.45-1.13-.73-1.86-.6-1.54-.95-2.41-.69-1.72-1-2.56l-.91-2.33C371.6,190.82,371.38,190.25,371.22,189.83Z" style="fill:#339"/><path d="M388,189.49l-.57-1.94,4.23-1.13-2-7.31a1.22,1.22,0,0,1,.2-.59,2,2,0,0,1,.42-.48.89.89,0,0,1,.55-.18.87.87,0,0,1,.61.29,13,13,0,0,1,.82,1.78c.23.61.43,1.22.62,1.85s.36,1.24.53,1.87.37,1.23.58,1.82a8.15,8.15,0,0,1,1-.35q.57-.15,1.14-.33l1.13-.32q.54-.16,1-.33l.45,2.07-4.15,1c.24.93.47,1.8.7,2.59s.45,1.55.68,2.3.45,1.52.67,2.3.46,1.63.71,2.55a1.52,1.52,0,0,1-1.39.46,1.85,1.85,0,0,1-1-.92,7.76,7.76,0,0,1-.71-1.82c-.19-.74-.39-1.5-.57-2.28s-.38-1.54-.57-2.27a7.68,7.68,0,0,0-.7-1.8Z" style="fill:#339"/><path d="M413.13,191.75c-.2-.72-.41-1.51-.64-2.35s-.49-1.63-.77-2.35a9.35,9.35,0,0,0-.87-1.79c-.3-.48-.62-.71-1-.7a23.32,23.32,0,0,0-2.4.27,6.24,6.24,0,0,0-1.78.53,2.91,2.91,0,0,0-1.14,1,4,4,0,0,0-.54,1.73,11.94,11.94,0,0,0,0,2.65,37.49,37.49,0,0,0,.63,3.75l-2.2.59q-.71-3-1.48-5.59c-.52-1.73-1-3.34-1.48-4.84s-.88-2.89-1.23-4.17a25.12,25.12,0,0,1-.72-3.55.93.93,0,0,1,.45-.69,1.11,1.11,0,0,1,.75-.1,1.88,1.88,0,0,1,.77.34,1.28,1.28,0,0,1,.48.62c0,.17.08.45.17.83s.19.83.31,1.33.26,1.06.41,1.66.3,1.17.47,1.75.33,1.13.5,1.66a11.93,11.93,0,0,0,.53,1.35,12.17,12.17,0,0,1,1.3-1.29,7.67,7.67,0,0,1,1.48-1,10.09,10.09,0,0,1,1.77-.73,10.85,10.85,0,0,1,2.17-.42,10,10,0,0,1,2.08.66,4.14,4.14,0,0,1,1.29.94,4.43,4.43,0,0,1,.81,1.27c.19.47.39,1,.58,1.64s.41,1.32.66,2.09a24.06,24.06,0,0,0,1,2.57.92.92,0,0,1-.4.47,2.44,2.44,0,0,1-.77.35,1.56,1.56,0,0,1-.8,0A.63.63,0,0,1,413.13,191.75Z" style="fill:#339"/><path d="M427.24,186.2a7.08,7.08,0,0,1-1.2,1.39,12.83,12.83,0,0,1-1.65,1.26,15.55,15.55,0,0,1-1.81,1,9.93,9.93,0,0,1-1.69.63,7.19,7.19,0,0,1-1.21.21,5.59,5.59,0,0,1-1.36,0,3.2,3.2,0,0,1-1.19-.43,1.64,1.64,0,0,1-.7-1,7.11,7.11,0,0,1-.39-2.57,8.25,8.25,0,0,1,.46-2.51,9.84,9.84,0,0,1,1.2-2.32,11.61,11.61,0,0,1,1.77-2,11.22,11.22,0,0,1,2.18-1.52,9.78,9.78,0,0,1,2.44-.92,2.37,2.37,0,0,1,1.66.18,5.87,5.87,0,0,1,1.5,1q1.32,4.92,2.63,9.71t2.94,9.62l-.44.12-.34.1-.41.12-.64.17Zm-8.94,1.49a1.52,1.52,0,0,0,.43.79,1.14,1.14,0,0,0,.65.27,2.57,2.57,0,0,0,.81-.07l.89-.22a10.08,10.08,0,0,0,1.88-.72,6.31,6.31,0,0,0,1.62-1.12,4.11,4.11,0,0,0,1-1.59,3.47,3.47,0,0,0,0-2.07c0-.17-.09-.46-.15-.88s-.13-.83-.22-1.25a4.6,4.6,0,0,0-.39-1.07c-.16-.3-.36-.41-.6-.35a9.24,9.24,0,0,0-2.59,1.16,8.5,8.5,0,0,0-2.1,1.9,6.88,6.88,0,0,0-1.24,2.44A5.25,5.25,0,0,0,418.3,187.69Z" style="fill:#339"/><path d="M430.48,183.8c-.08-.3-.22-.72-.42-1.25s-.4-1.11-.61-1.74-.4-1.28-.57-1.94a10.65,10.65,0,0,1-.31-1.85,3.71,3.71,0,0,1,.15-1.46,1.18,1.18,0,0,1,.87-.79,2.13,2.13,0,0,1,1.23.3,1.26,1.26,0,0,1,.49.82,4.64,4.64,0,0,1,.05,1.27c0,.49-.06,1.05-.07,1.68a13.42,13.42,0,0,0,.13,2,9.48,9.48,0,0,0,.66,2.31,2.21,2.21,0,0,0,1.17,1,3.5,3.5,0,0,0,1.63.17,6.31,6.31,0,0,0,1.84-.52,9.18,9.18,0,0,0,1.78-1,8.91,8.91,0,0,0,1.47-1.31,4.79,4.79,0,0,0,.9-1.42,12.68,12.68,0,0,0-.3-2.14,16.58,16.58,0,0,0-.54-1.81c-.2-.58-.42-1.16-.66-1.75s-.46-1.26-.68-2a1.21,1.21,0,0,1,1.39-.25,3.13,3.13,0,0,1,1.16,1.28,14,14,0,0,1,1,2.29c.31.91.59,1.84.86,2.81s.53,1.92.77,2.84a22.33,22.33,0,0,0,.75,2.33.94.94,0,0,1-1.25.45,3.54,3.54,0,0,1-1.58-1.78,7.23,7.23,0,0,1-1,1.11,12.28,12.28,0,0,1-1.8,1.37,13.77,13.77,0,0,1-2.26,1.17,6.49,6.49,0,0,1-2.38.51,4,4,0,0,1-2.17-.59A4.33,4.33,0,0,1,430.48,183.8Z" style="fill:#339"/><path d="M456.2,175.91a11.24,11.24,0,0,1-1,2.26,9.67,9.67,0,0,1-1.52,1.91,8.43,8.43,0,0,1-2,1.44,8.85,8.85,0,0,1-2.51.85,6.11,6.11,0,0,1-1.05.16,3.64,3.64,0,0,1-1.1-.1,2.24,2.24,0,0,1-.93-.45,1.75,1.75,0,0,1-.57-.94,5.87,5.87,0,0,1-.59-2.6,9.77,9.77,0,0,1,.43-2.8,11.36,11.36,0,0,1,1.23-2.74,12.78,12.78,0,0,1,1.85-2.36,9.83,9.83,0,0,1,2.26-1.71,6.2,6.2,0,0,1,2.5-.77,1.92,1.92,0,0,1,1.62.22,4.16,4.16,0,0,1,1.21,1.43,11.88,11.88,0,0,1,1,2.25q.42,1.31.84,2.7c.28.93.57,1.84.87,2.74a15.45,15.45,0,0,0,1,2.41l-1.67.44c-.22-.49-.39-.93-.54-1.31l-.39-1.07c-.12-.33-.25-.65-.39-1S456.39,176.28,456.2,175.91Zm-3.34-5.58a4.68,4.68,0,0,0-1.76.73,8.32,8.32,0,0,0-1.58,1.34,10.22,10.22,0,0,0-1.28,1.75,11.93,11.93,0,0,0-.9,1.93,7.86,7.86,0,0,0-.44,1.85,3.49,3.49,0,0,0,.15,1.55,1.93,1.93,0,0,0,.82,1,2.51,2.51,0,0,0,1.57.26,6,6,0,0,0,2.43-1.39,9.53,9.53,0,0,0,1.8-2.26,10.38,10.38,0,0,0,1.07-2.57,7.26,7.26,0,0,0,.28-2.34,2.44,2.44,0,0,0-.6-1.58A1.48,1.48,0,0,0,452.86,170.33Z" style="fill:#339"/><path d="M458.86,168.89c-.21-.77-.44-1.53-.7-2.28s-.53-1.51-.8-2.27-.54-1.5-.8-2.25-.49-1.5-.69-2.27a.89.89,0,0,1,.06-.77,1.1,1.1,0,0,1,.64-.39l.24-.07.25,0a18.8,18.8,0,0,1,1.09,2.4c.32.86.63,1.76,1,2.72l1,3c.34,1,.75,2.13,1.21,3.25a12.79,12.79,0,0,0,1-1.05c.42-.49.88-1,1.38-1.67l1.58-1.94c.55-.67,1.07-1.29,1.58-1.85s1-1,1.36-1.44a2.78,2.78,0,0,1,.93-.67.66.66,0,0,1,.42,0,1.45,1.45,0,0,1,.42.32,13.76,13.76,0,0,1-1.55,2.71c-.62.86-1.27,1.69-2,2.5s-1.37,1.62-2.06,2.41a20.86,20.86,0,0,0-1.81,2.42c1.34,0,2.63,0,3.87.1s2.43.1,3.58.12,2.26,0,3.35-.05a21.61,21.61,0,0,0,3.23-.41c.06.22.1.42.13.59a.92.92,0,0,1,0,.47.79.79,0,0,1-.27.38,2,2,0,0,1-.64.3l-.22.06c-.73,0-1.63,0-2.69,0s-2.2.11-3.4.19-2.42.13-3.64.18-2.35.08-3.38.08a8.06,8.06,0,0,0,.28.85c.14.37.28.77.41,1.2a10,10,0,0,1,.31,1.31,3,3,0,0,1,0,1.2,1.47,1.47,0,0,1-.54.88,1.89,1.89,0,0,1-1.28.29Z" style="fill:#339"/><path d="M477.72,171.19a8.73,8.73,0,0,1-.61-3.67A9.3,9.3,0,0,1,478,164a8.49,8.49,0,0,1,2.14-2.84,7.53,7.53,0,0,1,3.27-1.66,4.63,4.63,0,0,1,.87-.14,8,8,0,0,1,1.21,0,8.27,8.27,0,0,1,1.3.17,4.69,4.69,0,0,1,1.21.43,2.77,2.77,0,0,1,.91.74,1.88,1.88,0,0,1,.42,1.11,5.82,5.82,0,0,1-1.89,1.48,21.78,21.78,0,0,1-2.38,1l-2.4.84a7.54,7.54,0,0,0-2,1,2.91,2.91,0,0,0-1.09,1.45,3.23,3.23,0,0,0,.26,2.19,3.45,3.45,0,0,0,1.62,1.54,3.84,3.84,0,0,0,2,.23,7.2,7.2,0,0,0,2.16-.71,17.19,17.19,0,0,0,2.12-1.23c.68-.46,1.31-.92,1.88-1.38s1-.84,1.42-1.13a.71.71,0,0,1,.55.08.72.72,0,0,1,.34.46,5.55,5.55,0,0,1-1.25,2.2,10.8,10.8,0,0,1-2.27,1.94,12.52,12.52,0,0,1-2.87,1.4,9.63,9.63,0,0,1-3,.57,6.28,6.28,0,0,1-2.74-.55A4.36,4.36,0,0,1,477.72,171.19Zm5.9-9.95a5.68,5.68,0,0,0-1,.36,4.61,4.61,0,0,0-1,.62,3.26,3.26,0,0,0-.78.84,1.23,1.23,0,0,0-.15,1l5.36-2.43a2,2,0,0,0-1.14-.52A3.4,3.4,0,0,0,483.62,161.24Z" style="fill:#339"/><path d="M501.61,149.43l.39-.1a3,3,0,0,1,.61-.11,2.52,2.52,0,0,1,.62,0,.66.66,0,0,1,.44.32,13.92,13.92,0,0,1,1.48-.81,19.16,19.16,0,0,1,2.08-.83,25,25,0,0,1,2.47-.71,18.27,18.27,0,0,1,2.63-.44,12.45,12.45,0,0,1,2.59,0,7.47,7.47,0,0,1,2.31.59,5.27,5.27,0,0,1,1.84,1.33,6.86,6.86,0,0,1,1.41,4.8,9.7,9.7,0,0,1-.83,2.73A16.51,16.51,0,0,1,518,159a24.69,24.69,0,0,1-2.23,2.58,25.88,25.88,0,0,1-2.55,2.27,22,22,0,0,1-2.59,1.79,14,14,0,0,1-2.37,1.13,4.46,4.46,0,0,1-1.9.32Zm16.77,2.25a4.47,4.47,0,0,0-1.55-2.05,5.88,5.88,0,0,0-2.29-.94,8.93,8.93,0,0,0-2.69-.05,17,17,0,0,0-2.77.58,17.25,17.25,0,0,0-2.51,1,11.76,11.76,0,0,0-1.9,1.13l3.61,13.49a8.13,8.13,0,0,0,2.13-1,19.32,19.32,0,0,0,2.43-1.79,24.09,24.09,0,0,0,2.37-2.37,18.37,18.37,0,0,0,2-2.69,11,11,0,0,0,1.17-2.74A5,5,0,0,0,518.38,151.68Z" style="fill:#339"/><path d="M534.78,154.86a11.16,11.16,0,0,1-1,2.25,9.67,9.67,0,0,1-1.52,1.91,8.52,8.52,0,0,1-4.52,2.29,5.27,5.27,0,0,1-1.05.16,4,4,0,0,1-1.1-.09,2.39,2.39,0,0,1-.93-.46,1.71,1.71,0,0,1-.57-.94,5.82,5.82,0,0,1-.59-2.59,9.84,9.84,0,0,1,.43-2.81,11.47,11.47,0,0,1,1.23-2.73,13.2,13.2,0,0,1,1.85-2.37,10.43,10.43,0,0,1,2.26-1.71,6.13,6.13,0,0,1,2.5-.76,1.88,1.88,0,0,1,1.62.22,4.12,4.12,0,0,1,1.21,1.42,11.72,11.72,0,0,1,1,2.26c.28.87.56,1.77.84,2.69s.57,1.84.87,2.74a15.45,15.45,0,0,0,1,2.41l-1.67.45c-.22-.49-.39-.93-.54-1.31l-.39-1.07c-.12-.34-.25-.65-.39-1S535,155.23,534.78,154.86Zm-3.34-5.59a5,5,0,0,0-1.76.73,8,8,0,0,0-1.58,1.35,9.85,9.85,0,0,0-1.28,1.75,11.84,11.84,0,0,0-.9,1.92,8,8,0,0,0-.44,1.86,3.51,3.51,0,0,0,.15,1.55,1.87,1.87,0,0,0,.82,1,2.44,2.44,0,0,0,1.57.26,6,6,0,0,0,2.43-1.39,9.68,9.68,0,0,0,1.8-2.25,10.54,10.54,0,0,0,1.07-2.57,7.29,7.29,0,0,0,.28-2.34,2.45,2.45,0,0,0-.6-1.59A1.5,1.5,0,0,0,531.44,149.27Z" style="fill:#339"/><path d="M537,149.57l-.56-1.94,4.23-1.13-2-7.31a1.32,1.32,0,0,1,.19-.59,2,2,0,0,1,.42-.48.91.91,0,0,1,.56-.18.88.88,0,0,1,.61.28,13.72,13.72,0,0,1,.82,1.79c.23.61.43,1.22.61,1.85s.37,1.24.54,1.87.37,1.23.58,1.82a7.55,7.55,0,0,1,1-.35l1.14-.33,1.12-.32c.37-.11.7-.22,1-.33l.45,2.06-4.15,1c.24.94.47,1.81.69,2.6s.46,1.55.68,2.3.45,1.52.68,2.3.46,1.63.71,2.55a1.53,1.53,0,0,1-1.4.46,1.91,1.91,0,0,1-1-.92,7.35,7.35,0,0,1-.71-1.82q-.3-1.11-.57-2.28c-.19-.79-.38-1.54-.57-2.27a7.67,7.67,0,0,0-.71-1.8Z" style="fill:#339"/><path d="M561.24,147.77a10.36,10.36,0,0,1-1,2.25,9.62,9.62,0,0,1-1.51,1.91,8.73,8.73,0,0,1-2,1.45,8.47,8.47,0,0,1-2.5.84,5.51,5.51,0,0,1-1.05.16,4,4,0,0,1-1.1-.09,2.36,2.36,0,0,1-.94-.46,1.75,1.75,0,0,1-.57-.94,5.82,5.82,0,0,1-.58-2.59,9.82,9.82,0,0,1,.42-2.81,11.12,11.12,0,0,1,1.24-2.73,12.76,12.76,0,0,1,1.85-2.37,10.2,10.2,0,0,1,2.26-1.71,6.09,6.09,0,0,1,2.5-.76,1.83,1.83,0,0,1,1.61.22,4.14,4.14,0,0,1,1.22,1.42,12.58,12.58,0,0,1,1,2.25c.29.87.57,1.77.85,2.7s.57,1.84.87,2.74a13.75,13.75,0,0,0,1,2.41l-1.68.45c-.21-.49-.39-.93-.53-1.32s-.28-.73-.4-1.07-.25-.64-.39-.95S561.44,148.13,561.24,147.77Zm-3.34-5.59a5,5,0,0,0-1.75.73,8.38,8.38,0,0,0-1.59,1.34,10.17,10.17,0,0,0-1.27,1.75,13.41,13.41,0,0,0-.91,1.93,7.89,7.89,0,0,0-.43,1.86,3.61,3.61,0,0,0,.14,1.54,1.9,1.9,0,0,0,.82,1,2.54,2.54,0,0,0,1.58.26,6,6,0,0,0,2.43-1.39,9.91,9.91,0,0,0,1.79-2.25,11,11,0,0,0,1.08-2.57,7.61,7.61,0,0,0,.28-2.35,2.45,2.45,0,0,0-.61-1.58A1.5,1.5,0,0,0,557.9,142.18Z" style="fill:#339"/><path d="M137.7,140.13c49-9.9,134.39-31.76,189.22,39.87" style="fill:none;stroke:#339;stroke-miterlimit:10;stroke-width:2px"/><path d="M153,146.8a1,1,0,0,0-.58-1.3L138.15,140l11-10.63a1,1,0,1,0-1.39-1.44l-12.13,11.72a1,1,0,0,0-.28.92,1,1,0,0,0,.62.74l15.75,6a1.09,1.09,0,0,0,.56,0A1,1,0,0,0,153,146.8Z" style="fill:#339"/><path d="M145.84,390.73c38.36-32.06,103-92,185.35-55.14" style="fill:none;stroke:#339;stroke-miterlimit:10;stroke-width:2px"/><path d="M162.48,389.29a1,1,0,0,0-1.12-.87l-15.17,2,4.61-14.59a1,1,0,0,0-1.91-.6l-5.08,16.09a1,1,0,0,0,1.09,1.29l16.72-2.2a1,1,0,0,0,.51-.23A1,1,0,0,0,162.48,389.29Z" style="fill:#339"/></svg>