<svg xmlns="http://www.w3.org/2000/svg" viewBox="0 0 600 600"><title>promo-stdev-mo</title><line x1="62.27" y1="556" x2="591.27" y2="556" style="fill:none;stroke:#000;stroke-miterlimit:10"/><line x1="62.27" y1="556" x2="62.27" y2="543" style="fill:none;stroke:#000;stroke-miterlimit:10"/><line x1="150.43" y1="556" x2="150.43" y2="543" style="fill:none;stroke:#000;stroke-miterlimit:10"/><line x1="238.6" y1="556" x2="238.6" y2="543" style="fill:none;stroke:#000;stroke-miterlimit:10"/><line x1="326.77" y1="556" x2="326.77" y2="543" style="fill:none;stroke:#000;stroke-miterlimit:10"/><line x1="414.93" y1="556" x2="414.93" y2="543" style="fill:none;stroke:#000;stroke-miterlimit:10"/><line x1="503.1" y1="556" x2="503.1" y2="543" style="fill:none;stroke:#000;stroke-miterlimit:10"/><line x1="591.27" y1="556" x2="591.27" y2="543" style="fill:none;stroke:#000;stroke-miterlimit:10"/><path d="M53.11,557.07c0,5.48-2,8.5-5.61,8.5-3.15,0-5.28-3-5.33-8.28s2.33-8.38,5.61-8.38S53.11,551.93,53.11,557.07Zm-8.76.24c0,4.19,1.29,6.58,3.28,6.58,2.23,0,3.3-2.61,3.3-6.72s-1-6.58-3.28-6.58C45.74,550.59,44.35,552.93,44.35,557.31Z"/><path d="M17.48,458.79a7.23,7.23,0,0,0,3.57,1c2.8,0,3.67-1.78,3.64-3.12,0-2.26-2.06-3.23-4.16-3.23H19.31v-1.63h1.22c1.58,0,3.59-.82,3.59-2.73,0-1.29-.82-2.43-2.83-2.43a5.86,5.86,0,0,0-3.22,1.07l-.57-1.59a7.66,7.66,0,0,1,4.22-1.24c3.17,0,4.61,1.88,4.61,3.84a4,4,0,0,1-3,3.8v.05a4.19,4.19,0,0,1,3.6,4.14c0,2.58-2,4.83-5.88,4.83a8.19,8.19,0,0,1-4.19-1.09Z"/><path d="M40.39,453.07c0,5.48-2,8.5-5.61,8.5-3.15,0-5.28-2.95-5.33-8.28s2.33-8.38,5.61-8.38S40.39,447.93,40.39,453.07Zm-8.76.24c0,4.19,1.29,6.58,3.28,6.58,2.23,0,3.29-2.61,3.29-6.72s-1-6.58-3.27-6.58C33,446.59,31.63,448.93,31.63,453.31Z"/><path d="M53.11,453.07c0,5.48-2,8.5-5.61,8.5-3.15,0-5.28-2.95-5.33-8.28s2.33-8.38,5.61-8.38S53.11,447.93,53.11,453.07Zm-8.76.24c0,4.19,1.29,6.58,3.28,6.58,2.23,0,3.3-2.61,3.3-6.72s-1-6.58-3.28-6.58C45.74,446.59,44.35,448.93,44.35,453.31Z"/><path d="M26.15,342.72a7.45,7.45,0,0,0-1.63.1,6.56,6.56,0,0,0-5.61,5.73H19a4.8,4.8,0,0,1,3.89-1.86c2.85,0,4.86,2.05,4.86,5.2a5.39,5.39,0,0,1-5.36,5.68c-3.44,0-5.7-2.68-5.7-6.87a10.1,10.1,0,0,1,2.73-7.26,8.74,8.74,0,0,1,5.16-2.38,10.44,10.44,0,0,1,1.58-.13Zm-.62,9.3c0-2.31-1.31-3.7-3.32-3.7a3.58,3.58,0,0,0-3.12,2,1.82,1.82,0,0,0-.25,1c.05,2.66,1.26,4.62,3.54,4.62C24.27,355.89,25.53,354.32,25.53,352Z"/><path d="M40.39,349.07c0,5.48-2,8.5-5.61,8.5-3.15,0-5.28-2.95-5.33-8.28s2.33-8.38,5.61-8.38S40.39,343.93,40.39,349.07Zm-8.76.24c0,4.19,1.29,6.58,3.28,6.58,2.23,0,3.29-2.61,3.29-6.72s-1-6.57-3.27-6.57C33,342.6,31.63,344.93,31.63,349.31Z"/><path d="M53.11,349.07c0,5.48-2,8.5-5.61,8.5-3.15,0-5.28-2.95-5.33-8.28s2.33-8.38,5.61-8.38S53.11,343.93,53.11,349.07Zm-8.76.24c0,4.19,1.29,6.58,3.28,6.58,2.23,0,3.3-2.61,3.3-6.72s-1-6.57-3.28-6.57C45.74,342.6,44.35,344.93,44.35,349.31Z"/><path d="M18.22,251.76a9.36,9.36,0,0,0,1.76-.07,6.14,6.14,0,0,0,3.37-1.57,7,7,0,0,0,2.13-4.28h-.07a4.72,4.72,0,0,1-3.79,1.73,4.67,4.67,0,0,1-4.76-4.93,5.52,5.52,0,0,1,5.5-5.73c3.3,0,5.33,2.68,5.33,6.79a10.19,10.19,0,0,1-2.78,7.57,8.09,8.09,0,0,1-4.68,2.15,10.18,10.18,0,0,1-2,.13Zm.79-9.27a3.1,3.1,0,0,0,3.1,3.42,3.61,3.61,0,0,0,3.18-1.69,1.44,1.44,0,0,0,.19-.79c0-2.75-1-4.86-3.29-4.86C20.33,238.57,19,240.21,19,242.49Z"/><path d="M40.39,245.07c0,5.48-2,8.5-5.61,8.5-3.15,0-5.28-2.95-5.33-8.28s2.33-8.38,5.61-8.38S40.39,239.93,40.39,245.07Zm-8.76.24c0,4.19,1.29,6.58,3.28,6.58,2.23,0,3.29-2.61,3.29-6.72s-1-6.57-3.27-6.57C33,238.6,31.63,240.93,31.63,245.31Z"/><path d="M53.11,245.07c0,5.48-2,8.5-5.61,8.5-3.15,0-5.28-2.95-5.33-8.28s2.33-8.38,5.61-8.38S53.11,239.93,53.11,245.07Zm-8.76.24c0,4.19,1.29,6.58,3.28,6.58,2.23,0,3.3-2.61,3.3-6.72s-1-6.57-3.28-6.57C45.74,238.6,44.35,240.93,44.35,245.31Z"/><path d="M9,135.21H8.92l-2.8,1.52-.42-1.66,3.52-1.89h1.86V149.3H9Z"/><path d="M17,149.3V148l1.72-1.66c4.11-3.92,6-6,6-8.43a2.88,2.88,0,0,0-3.2-3.15,5.45,5.45,0,0,0-3.42,1.36l-.7-1.53a7,7,0,0,1,4.56-1.64,4.54,4.54,0,0,1,4.94,4.69c0,3-2.16,5.38-5.56,8.65L20,147.44v.05h7.24v1.81Z"/><path d="M40.39,141.07c0,5.48-2,8.5-5.61,8.5-3.15,0-5.28-2.95-5.33-8.28s2.33-8.38,5.61-8.38S40.39,135.93,40.39,141.07Zm-8.76.24c0,4.19,1.29,6.58,3.28,6.58,2.23,0,3.29-2.61,3.29-6.72s-1-6.57-3.27-6.57C33,134.6,31.63,136.93,31.63,141.31Z"/><path d="M53.11,141.07c0,5.48-2,8.5-5.61,8.5-3.15,0-5.28-2.95-5.33-8.28s2.33-8.38,5.61-8.38S53.11,135.93,53.11,141.07Zm-8.76.24c0,4.19,1.29,6.58,3.28,6.58,2.23,0,3.29-2.61,3.29-6.72s-1-6.57-3.27-6.57C45.74,134.6,44.35,136.93,44.35,141.31Z"/><path d="M9,31.21H8.92l-2.8,1.52L5.7,31.07l3.52-1.89h1.86V45.3H9Z"/><path d="M26.57,31H20.43l-.62,4.14a8.41,8.41,0,0,1,1.31-.1,6.75,6.75,0,0,1,3.47.87,4.58,4.58,0,0,1,2.31,4.14c0,3.15-2.51,5.5-6,5.5a7.87,7.87,0,0,1-4-1l.55-1.66a7.13,7.13,0,0,0,3.44.89,3.56,3.56,0,0,0,3.82-3.5c0-2.08-1.41-3.57-4.64-3.57a15.79,15.79,0,0,0-2.23.18l1-7.74h7.71Z"/><path d="M40.39,37.07c0,5.48-2,8.5-5.61,8.5-3.15,0-5.28-3-5.33-8.28s2.33-8.38,5.61-8.38S40.39,31.93,40.39,37.07Zm-8.76.24c0,4.19,1.29,6.58,3.28,6.58,2.23,0,3.29-2.61,3.29-6.72s-1-6.57-3.27-6.57C33,30.6,31.63,32.93,31.63,37.31Z"/><path d="M53.11,37.07c0,5.48-2,8.5-5.61,8.5-3.15,0-5.28-3-5.33-8.28s2.33-8.38,5.61-8.38S53.11,31.93,53.11,37.07Zm-8.76.24c0,4.19,1.29,6.58,3.28,6.58,2.23,0,3.29-2.61,3.29-6.72s-1-6.57-3.27-6.57C45.74,30.6,44.35,32.93,44.35,37.31Z"/><line x1="62.27" y1="556" x2="62.27" y2="36" style="fill:none;stroke:#000;stroke-miterlimit:10"/><line x1="62.27" y1="556" x2="75.49" y2="556" style="fill:none;stroke:#000;stroke-miterlimit:10"/><line x1="62.27" y1="452" x2="75.49" y2="452" style="fill:none;stroke:#000;stroke-miterlimit:10"/><line x1="62.27" y1="348" x2="75.49" y2="348" style="fill:none;stroke:#000;stroke-miterlimit:10"/><line x1="62.27" y1="244" x2="75.49" y2="244" style="fill:none;stroke:#000;stroke-miterlimit:10"/><line x1="62.27" y1="140" x2="75.49" y2="140" style="fill:none;stroke:#000;stroke-miterlimit:10"/><line x1="62.27" y1="36" x2="75.49" y2="36" style="fill:none;stroke:#000;stroke-miterlimit:10"/><line x1="194.52" y1="532.09" x2="106.35" y2="492.89" style="fill:none;stroke:#606060;stroke-linecap:round;stroke-miterlimit:10;stroke-width:2px"/><line x1="282.68" y1="544.85" x2="194.52" y2="532.09" style="fill:none;stroke:#606060;stroke-linecap:round;stroke-miterlimit:10;stroke-width:2px"/><line x1="370.85" y1="552.79" x2="282.68" y2="544.85" style="fill:none;stroke:#606060;stroke-linecap:round;stroke-miterlimit:10;stroke-width:2px"/><line x1="459.02" y1="555.28" x2="370.85" y2="552.79" style="fill:none;stroke:#606060;stroke-linecap:round;stroke-miterlimit:10;stroke-width:2px"/><line x1="547.18" y1="555.77" x2="459.02" y2="555.28" style="fill:none;stroke:#606060;stroke-linecap:round;stroke-miterlimit:10;stroke-width:2px"/><line x1="194.52" y1="530.75" x2="106.35" y2="515.95" style="fill:none;stroke:#bfbfbf;stroke-linecap:round;stroke-miterlimit:10;stroke-width:2px"/><line x1="282.68" y1="547.73" x2="194.52" y2="530.75" style="fill:none;stroke:#bfbfbf;stroke-linecap:round;stroke-miterlimit:10;stroke-width:2px"/><line x1="370.85" y1="552.19" x2="282.68" y2="547.73" style="fill:none;stroke:#bfbfbf;stroke-linecap:round;stroke-miterlimit:10;stroke-width:2px"/><line x1="459.02" y1="555.23" x2="370.85" y2="552.19" style="fill:none;stroke:#bfbfbf;stroke-linecap:round;stroke-miterlimit:10;stroke-width:2px"/><line x1="547.18" y1="555.82" x2="459.02" y2="555.23" style="fill:none;stroke:#bfbfbf;stroke-linecap:round;stroke-miterlimit:10;stroke-width:2px"/><line x1="194.52" y1="537.65" x2="106.35" y2="494.48" style="fill:none;stroke:#202020;stroke-linecap:round;stroke-miterlimit:10;stroke-width:2px"/><line x1="282.68" y1="549.4" x2="194.52" y2="537.65" style="fill:none;stroke:#202020;stroke-linecap:round;stroke-miterlimit:10;stroke-width:2px"/><line x1="370.85" y1="551.99" x2="282.68" y2="549.4" style="fill:none;stroke:#202020;stroke-linecap:round;stroke-miterlimit:10;stroke-width:2px"/><line x1="459.02" y1="555.19" x2="370.85" y2="551.99" style="fill:none;stroke:#202020;stroke-linecap:round;stroke-miterlimit:10;stroke-width:2px"/><line x1="547.18" y1="555.73" x2="459.02" y2="555.19" style="fill:none;stroke:#202020;stroke-linecap:round;stroke-miterlimit:10;stroke-width:2px"/><line x1="194.52" y1="521.32" x2="106.35" y2="475.14" style="fill:none;stroke:#9f9f9f;stroke-linecap:round;stroke-miterlimit:10;stroke-width:2px"/><line x1="282.68" y1="547.21" x2="194.52" y2="521.32" style="fill:none;stroke:#9f9f9f;stroke-linecap:round;stroke-miterlimit:10;stroke-width:2px"/><line x1="370.85" y1="554.06" x2="282.68" y2="547.21" style="fill:none;stroke:#9f9f9f;stroke-linecap:round;stroke-miterlimit:10;stroke-width:2px"/><line x1="459.02" y1="555.41" x2="370.85" y2="554.06" style="fill:none;stroke:#9f9f9f;stroke-linecap:round;stroke-miterlimit:10;stroke-width:2px"/><line x1="547.18" y1="555.82" x2="459.02" y2="555.41" style="fill:none;stroke:#9f9f9f;stroke-linecap:round;stroke-miterlimit:10;stroke-width:2px"/><line x1="194.52" y1="521.33" x2="106.35" y2="493.07" style="fill:none;stroke:#404040;stroke-linecap:round;stroke-miterlimit:10;stroke-width:2px"/><line x1="282.68" y1="546.43" x2="194.52" y2="521.33" style="fill:none;stroke:#404040;stroke-linecap:round;stroke-miterlimit:10;stroke-width:2px"/><line x1="370.85" y1="553.11" x2="282.68" y2="546.43" style="fill:none;stroke:#404040;stroke-linecap:round;stroke-miterlimit:10;stroke-width:2px"/><line x1="459.02" y1="555.01" x2="370.85" y2="553.11" style="fill:none;stroke:#404040;stroke-linecap:round;stroke-miterlimit:10;stroke-width:2px"/><line x1="547.18" y1="555.82" x2="459.02" y2="555.01" style="fill:none;stroke:#404040;stroke-linecap:round;stroke-miterlimit:10;stroke-width:2px"/><line x1="194.52" y1="536.51" x2="106.35" y2="505.88" style="fill:none;stroke:gray;stroke-linecap:round;stroke-miterlimit:10;stroke-width:2px"/><line x1="282.68" y1="544.31" x2="194.52" y2="536.51" style="fill:none;stroke:gray;stroke-linecap:round;stroke-miterlimit:10;stroke-width:2px"/><line x1="370.85" y1="553.19" x2="282.68" y2="544.31" style="fill:none;stroke:gray;stroke-linecap:round;stroke-miterlimit:10;stroke-width:2px"/><line x1="459.02" y1="555.16" x2="370.85" y2="553.19" style="fill:none;stroke:gray;stroke-linecap:round;stroke-miterlimit:10;stroke-width:2px"/><line x1="547.18" y1="555.82" x2="459.02" y2="555.16" style="fill:none;stroke:gray;stroke-linecap:round;stroke-miterlimit:10;stroke-width:2px"/><line x1="194.52" y1="527.83" x2="106.35" y2="502.97" style="fill:none;stroke:#dfdfdf;stroke-linecap:round;stroke-miterlimit:10;stroke-width:2px"/><line x1="282.68" y1="547.52" x2="194.52" y2="527.83" style="fill:none;stroke:#dfdfdf;stroke-linecap:round;stroke-miterlimit:10;stroke-width:2px"/><line x1="370.85" y1="553.38" x2="282.68" y2="547.52" style="fill:none;stroke:#dfdfdf;stroke-linecap:round;stroke-miterlimit:10;stroke-width:2px"/><line x1="459.02" y1="555.3" x2="370.85" y2="553.38" style="fill:none;stroke:#dfdfdf;stroke-linecap:round;stroke-miterlimit:10;stroke-width:2px"/><line x1="547.18" y1="555.77" x2="459.02" y2="555.3" style="fill:none;stroke:#dfdfdf;stroke-linecap:round;stroke-miterlimit:10;stroke-width:2px"/><line x1="194.52" y1="527.61" x2="106.35" y2="486.97" style="fill:none;stroke:#000;stroke-linecap:round;stroke-miterlimit:10;stroke-width:2px"/><line x1="282.68" y1="547.02" x2="194.52" y2="527.61" style="fill:none;stroke:#000;stroke-linecap:round;stroke-miterlimit:10;stroke-width:2px"/><line x1="370.85" y1="553.61" x2="282.68" y2="547.02" style="fill:none;stroke:#000;stroke-linecap:round;stroke-miterlimit:10;stroke-width:2px"/><line x1="459.02" y1="555.34" x2="370.85" y2="553.61" style="fill:none;stroke:#000;stroke-linecap:round;stroke-miterlimit:10;stroke-width:2px"/><line x1="547.18" y1="555.77" x2="459.02" y2="555.34" style="fill:none;stroke:#000;stroke-linecap:round;stroke-miterlimit:10;stroke-width:2px"/><line x1="194.52" y1="529.29" x2="106.35" y2="485.24" style="fill:none;stroke:#606060;stroke-linecap:round;stroke-miterlimit:10;stroke-width:2px"/><line x1="282.68" y1="546.01" x2="194.52" y2="529.29" style="fill:none;stroke:#606060;stroke-linecap:round;stroke-miterlimit:10;stroke-width:2px"/><line x1="370.85" y1="553.33" x2="282.68" y2="546.01" style="fill:none;stroke:#606060;stroke-linecap:round;stroke-miterlimit:10;stroke-width:2px"/><line x1="459.02" y1="555.07" x2="370.85" y2="553.33" style="fill:none;stroke:#606060;stroke-linecap:round;stroke-miterlimit:10;stroke-width:2px"/><line x1="547.18" y1="555.82" x2="459.02" y2="555.07" style="fill:none;stroke:#606060;stroke-linecap:round;stroke-miterlimit:10;stroke-width:2px"/><line x1="194.52" y1="529.23" x2="106.35" y2="505.13" style="fill:none;stroke:#bfbfbf;stroke-linecap:round;stroke-miterlimit:10;stroke-width:2px"/><line x1="282.68" y1="546.2" x2="194.52" y2="529.23" style="fill:none;stroke:#bfbfbf;stroke-linecap:round;stroke-miterlimit:10;stroke-width:2px"/><line x1="370.85" y1="553.24" x2="282.68" y2="546.2" style="fill:none;stroke:#bfbfbf;stroke-linecap:round;stroke-miterlimit:10;stroke-width:2px"/><line x1="459.02" y1="555.53" x2="370.85" y2="553.24" style="fill:none;stroke:#bfbfbf;stroke-linecap:round;stroke-miterlimit:10;stroke-width:2px"/><line x1="547.18" y1="555.73" x2="459.02" y2="555.53" style="fill:none;stroke:#bfbfbf;stroke-linecap:round;stroke-miterlimit:10;stroke-width:2px"/><line x1="194.52" y1="527.54" x2="106.35" y2="485.43" style="fill:none;stroke:#202020;stroke-linecap:round;stroke-miterlimit:10;stroke-width:2px"/><line x1="282.68" y1="544.95" x2="194.52" y2="527.54" style="fill:none;stroke:#202020;stroke-linecap:round;stroke-miterlimit:10;stroke-width:2px"/><line x1="370.85" y1="554.08" x2="282.68" y2="544.95" style="fill:none;stroke:#202020;stroke-linecap:round;stroke-miterlimit:10;stroke-width:2px"/><line x1="459.02" y1="555.24" x2="370.85" y2="554.08" style="fill:none;stroke:#202020;stroke-linecap:round;stroke-miterlimit:10;stroke-width:2px"/><line x1="547.18" y1="555.82" x2="459.02" y2="555.24" style="fill:none;stroke:#202020;stroke-linecap:round;stroke-miterlimit:10;stroke-width:2px"/><line x1="194.52" y1="529.65" x2="106.35" y2="501.56" style="fill:none;stroke:#9f9f9f;stroke-linecap:round;stroke-miterlimit:10;stroke-width:2px"/><line x1="282.68" y1="549.18" x2="194.52" y2="529.65" style="fill:none;stroke:#9f9f9f;stroke-linecap:round;stroke-miterlimit:10;stroke-width:2px"/><line x1="370.85" y1="552.04" x2="282.68" y2="549.18" style="fill:none;stroke:#9f9f9f;stroke-linecap:round;stroke-miterlimit:10;stroke-width:2px"/><line x1="459.02" y1="555.22" x2="370.85" y2="552.04" style="fill:none;stroke:#9f9f9f;stroke-linecap:round;stroke-miterlimit:10;stroke-width:2px"/><line x1="547.18" y1="555.82" x2="459.02" y2="555.22" style="fill:none;stroke:#9f9f9f;stroke-linecap:round;stroke-miterlimit:10;stroke-width:2px"/><line x1="194.52" y1="531.76" x2="106.35" y2="510.86" style="fill:none;stroke:#404040;stroke-linecap:round;stroke-miterlimit:10;stroke-width:2px"/><line x1="282.68" y1="546.97" x2="194.52" y2="531.76" style="fill:none;stroke:#404040;stroke-linecap:round;stroke-miterlimit:10;stroke-width:2px"/><line x1="370.85" y1="553.22" x2="282.68" y2="546.97" style="fill:none;stroke:#404040;stroke-linecap:round;stroke-miterlimit:10;stroke-width:2px"/><line x1="459.02" y1="555.23" x2="370.85" y2="553.22" style="fill:none;stroke:#404040;stroke-linecap:round;stroke-miterlimit:10;stroke-width:2px"/><line x1="547.18" y1="555.82" x2="459.02" y2="555.23" style="fill:none;stroke:#404040;stroke-linecap:round;stroke-miterlimit:10;stroke-width:2px"/><line x1="194.52" y1="529.29" x2="106.35" y2="485.24" style="fill:none;stroke:gray;stroke-linecap:round;stroke-miterlimit:10;stroke-width:2px"/><line x1="282.68" y1="546.01" x2="194.52" y2="529.29" style="fill:none;stroke:gray;stroke-linecap:round;stroke-miterlimit:10;stroke-width:2px"/><line x1="370.85" y1="553.33" x2="282.68" y2="546.01" style="fill:none;stroke:gray;stroke-linecap:round;stroke-miterlimit:10;stroke-width:2px"/><line x1="459.02" y1="555.07" x2="370.85" y2="553.33" style="fill:none;stroke:gray;stroke-linecap:round;stroke-miterlimit:10;stroke-width:2px"/><line x1="547.18" y1="555.82" x2="459.02" y2="555.07" style="fill:none;stroke:gray;stroke-linecap:round;stroke-miterlimit:10;stroke-width:2px"/><line x1="194.52" y1="531.98" x2="106.35" y2="512.44" style="fill:none;stroke:#dfdfdf;stroke-linecap:round;stroke-miterlimit:10;stroke-width:2px"/><line x1="282.68" y1="546.29" x2="194.52" y2="531.98" style="fill:none;stroke:#dfdfdf;stroke-linecap:round;stroke-miterlimit:10;stroke-width:2px"/><line x1="370.85" y1="553.6" x2="282.68" y2="546.29" style="fill:none;stroke:#dfdfdf;stroke-linecap:round;stroke-miterlimit:10;stroke-width:2px"/><line x1="459.02" y1="554.98" x2="370.85" y2="553.6" style="fill:none;stroke:#dfdfdf;stroke-linecap:round;stroke-miterlimit:10;stroke-width:2px"/><line x1="547.18" y1="555.83" x2="459.02" y2="554.98" style="fill:none;stroke:#dfdfdf;stroke-linecap:round;stroke-miterlimit:10;stroke-width:2px"/><line x1="194.52" y1="460.58" x2="106.35" y2="65.13" style="fill:none;stroke:#bd1e2d;stroke-linecap:round;stroke-miterlimit:10;stroke-width:3px"/><line x1="282.68" y1="536.56" x2="194.52" y2="460.58" style="fill:none;stroke:#bd1e2d;stroke-linecap:round;stroke-miterlimit:10;stroke-width:3px"/><line x1="370.85" y1="553.14" x2="282.68" y2="536.56" style="fill:none;stroke:#bd1e2d;stroke-linecap:round;stroke-miterlimit:10;stroke-width:3px"/><line x1="459.02" y1="555.39" x2="370.85" y2="553.14" style="fill:none;stroke:#bd1e2d;stroke-linecap:round;stroke-miterlimit:10;stroke-width:3px"/><line x1="547.18" y1="555.77" x2="459.02" y2="555.39" style="fill:none;stroke:#bd1e2d;stroke-linecap:round;stroke-miterlimit:10;stroke-width:3px"/><rect x="103.35" y="489.89" width="6" height="6" style="fill:#606060;stroke:#000;stroke-miterlimit:10;stroke-width:0.5px"/><rect x="191.52" y="529.09" width="6" height="6" style="fill:#606060;stroke:#000;stroke-miterlimit:10;stroke-width:0.5px"/><rect x="279.68" y="541.85" width="6" height="6" style="fill:#606060;stroke:#000;stroke-miterlimit:10;stroke-width:0.5px"/><rect x="367.85" y="549.79" width="6" height="6" style="fill:#606060;stroke:#000;stroke-miterlimit:10;stroke-width:0.5px"/><rect x="456.02" y="552.28" width="6" height="6" style="fill:#606060;stroke:#000;stroke-miterlimit:10;stroke-width:0.5px"/><rect x="544.18" y="552.77" width="6" height="6" style="fill:#606060;stroke:#000;stroke-miterlimit:10;stroke-width:0.5px"/><rect x="103.35" y="512.95" width="6" height="6" style="fill:#bfbfbf;stroke:#000;stroke-miterlimit:10;stroke-width:0.5px"/><rect x="191.52" y="527.75" width="6" height="6" style="fill:#bfbfbf;stroke:#000;stroke-miterlimit:10;stroke-width:0.5px"/><rect x="279.68" y="544.73" width="6" height="6" style="fill:#bfbfbf;stroke:#000;stroke-miterlimit:10;stroke-width:0.5px"/><rect x="367.85" y="549.19" width="6" height="6" style="fill:#bfbfbf;stroke:#000;stroke-miterlimit:10;stroke-width:0.5px"/><rect x="456.02" y="552.23" width="6" height="6" style="fill:#bfbfbf;stroke:#000;stroke-miterlimit:10;stroke-width:0.5px"/><rect x="544.18" y="552.82" width="6" height="6" style="fill:#bfbfbf;stroke:#000;stroke-miterlimit:10;stroke-width:0.5px"/><rect x="103.35" y="491.48" width="6" height="6" style="fill:#202020;stroke:#000;stroke-miterlimit:10;stroke-width:0.5px"/><rect x="191.52" y="534.65" width="6" height="6" style="fill:#202020;stroke:#000;stroke-miterlimit:10;stroke-width:0.5px"/><rect x="279.68" y="546.4" width="6" height="6" style="fill:#202020;stroke:#000;stroke-miterlimit:10;stroke-width:0.5px"/><rect x="367.85" y="548.99" width="6" height="6" style="fill:#202020;stroke:#000;stroke-miterlimit:10;stroke-width:0.5px"/><rect x="456.02" y="552.19" width="6" height="6" style="fill:#202020;stroke:#000;stroke-miterlimit:10;stroke-width:0.5px"/><rect x="544.18" y="552.73" width="6" height="6" style="fill:#202020;stroke:#000;stroke-miterlimit:10;stroke-width:0.5px"/><rect x="103.35" y="472.14" width="6" height="6" style="fill:#9f9f9f;stroke:#000;stroke-miterlimit:10;stroke-width:0.5px"/><rect x="191.52" y="518.32" width="6" height="6" style="fill:#9f9f9f;stroke:#000;stroke-miterlimit:10;stroke-width:0.5px"/><rect x="279.68" y="544.21" width="6" height="6" style="fill:#9f9f9f;stroke:#000;stroke-miterlimit:10;stroke-width:0.5px"/><rect x="367.85" y="551.06" width="6" height="6" style="fill:#9f9f9f;stroke:#000;stroke-miterlimit:10;stroke-width:0.5px"/><rect x="456.02" y="552.41" width="6" height="6" style="fill:#9f9f9f;stroke:#000;stroke-miterlimit:10;stroke-width:0.5px"/><rect x="544.18" y="552.82" width="6" height="6" style="fill:#9f9f9f;stroke:#000;stroke-miterlimit:10;stroke-width:0.5px"/><rect x="103.35" y="490.07" width="6" height="6" style="fill:#404040;stroke:#000;stroke-miterlimit:10;stroke-width:0.5px"/><rect x="191.52" y="518.33" width="6" height="6" style="fill:#404040;stroke:#000;stroke-miterlimit:10;stroke-width:0.5px"/><rect x="279.68" y="543.43" width="6" height="6" style="fill:#404040;stroke:#000;stroke-miterlimit:10;stroke-width:0.5px"/><rect x="367.85" y="550.11" width="6" height="6" style="fill:#404040;stroke:#000;stroke-miterlimit:10;stroke-width:0.5px"/><rect x="456.02" y="552.01" width="6" height="6" style="fill:#404040;stroke:#000;stroke-miterlimit:10;stroke-width:0.5px"/><rect x="544.18" y="552.82" width="6" height="6" style="fill:#404040;stroke:#000;stroke-miterlimit:10;stroke-width:0.5px"/><rect x="103.35" y="502.88" width="6" height="6" style="fill:gray;stroke:#000;stroke-miterlimit:10;stroke-width:0.5px"/><rect x="191.52" y="533.51" width="6" height="6" style="fill:gray;stroke:#000;stroke-miterlimit:10;stroke-width:0.5px"/><rect x="279.68" y="541.31" width="6" height="6" style="fill:gray;stroke:#000;stroke-miterlimit:10;stroke-width:0.5px"/><rect x="367.85" y="550.19" width="6" height="6" style="fill:gray;stroke:#000;stroke-miterlimit:10;stroke-width:0.5px"/><rect x="456.02" y="552.16" width="6" height="6" style="fill:gray;stroke:#000;stroke-miterlimit:10;stroke-width:0.5px"/><rect x="544.18" y="552.82" width="6" height="6" style="fill:gray;stroke:#000;stroke-miterlimit:10;stroke-width:0.5px"/><rect x="103.35" y="499.97" width="6" height="6" style="fill:#dfdfdf;stroke:#000;stroke-miterlimit:10;stroke-width:0.5px"/><rect x="191.52" y="524.83" width="6" height="6" style="fill:#dfdfdf;stroke:#000;stroke-miterlimit:10;stroke-width:0.5px"/><rect x="279.68" y="544.52" width="6" height="6" style="fill:#dfdfdf;stroke:#000;stroke-miterlimit:10;stroke-width:0.5px"/><rect x="367.85" y="550.38" width="6" height="6" style="fill:#dfdfdf;stroke:#000;stroke-miterlimit:10;stroke-width:0.5px"/><rect x="456.02" y="552.3" width="6" height="6" style="fill:#dfdfdf;stroke:#000;stroke-miterlimit:10;stroke-width:0.5px"/><rect x="544.18" y="552.77" width="6" height="6" style="fill:#dfdfdf;stroke:#000;stroke-miterlimit:10;stroke-width:0.5px"/><rect x="103.35" y="483.97" width="6" height="6" style="stroke:#000;stroke-miterlimit:10;stroke-width:0.5px"/><rect x="191.52" y="524.61" width="6" height="6" style="stroke:#000;stroke-miterlimit:10;stroke-width:0.5px"/><rect x="279.68" y="544.02" width="6" height="6" style="stroke:#000;stroke-miterlimit:10;stroke-width:0.5px"/><rect x="367.85" y="550.61" width="6" height="6" style="stroke:#000;stroke-miterlimit:10;stroke-width:0.5px"/><rect x="456.02" y="552.34" width="6" height="6" style="stroke:#000;stroke-miterlimit:10;stroke-width:0.5px"/><rect x="544.18" y="552.77" width="6" height="6" style="stroke:#000;stroke-miterlimit:10;stroke-width:0.5px"/><rect x="103.35" y="482.24" width="6" height="6" style="fill:#606060;stroke:#000;stroke-miterlimit:10;stroke-width:0.5px"/><rect x="191.52" y="526.29" width="6" height="6" style="fill:#606060;stroke:#000;stroke-miterlimit:10;stroke-width:0.5px"/><rect x="279.68" y="543.01" width="6" height="6" style="fill:#606060;stroke:#000;stroke-miterlimit:10;stroke-width:0.5px"/><rect x="367.85" y="550.33" width="6" height="6" style="fill:#606060;stroke:#000;stroke-miterlimit:10;stroke-width:0.5px"/><rect x="456.02" y="552.07" width="6" height="6" style="fill:#606060;stroke:#000;stroke-miterlimit:10;stroke-width:0.5px"/><rect x="544.18" y="552.82" width="6" height="6" style="fill:#606060;stroke:#000;stroke-miterlimit:10;stroke-width:0.5px"/><rect x="103.35" y="502.13" width="6" height="6" style="fill:#bfbfbf;stroke:#000;stroke-miterlimit:10;stroke-width:0.5px"/><rect x="191.52" y="526.23" width="6" height="6" style="fill:#bfbfbf;stroke:#000;stroke-miterlimit:10;stroke-width:0.5px"/><rect x="279.68" y="543.2" width="6" height="6" style="fill:#bfbfbf;stroke:#000;stroke-miterlimit:10;stroke-width:0.5px"/><rect x="367.85" y="550.24" width="6" height="6" style="fill:#bfbfbf;stroke:#000;stroke-miterlimit:10;stroke-width:0.5px"/><rect x="456.02" y="552.53" width="6" height="6" style="fill:#bfbfbf;stroke:#000;stroke-miterlimit:10;stroke-width:0.5px"/><rect x="544.18" y="552.73" width="6" height="6" style="fill:#bfbfbf;stroke:#000;stroke-miterlimit:10;stroke-width:0.5px"/><rect x="103.35" y="482.43" width="6" height="6" style="fill:#202020;stroke:#000;stroke-miterlimit:10;stroke-width:0.5px"/><rect x="191.52" y="524.54" width="6" height="6" style="fill:#202020;stroke:#000;stroke-miterlimit:10;stroke-width:0.5px"/><rect x="279.68" y="541.95" width="6" height="6" style="fill:#202020;stroke:#000;stroke-miterlimit:10;stroke-width:0.5px"/><rect x="367.85" y="551.08" width="6" height="6" style="fill:#202020;stroke:#000;stroke-miterlimit:10;stroke-width:0.5px"/><rect x="456.02" y="552.24" width="6" height="6" style="fill:#202020;stroke:#000;stroke-miterlimit:10;stroke-width:0.5px"/><rect x="544.18" y="552.82" width="6" height="6" style="fill:#202020;stroke:#000;stroke-miterlimit:10;stroke-width:0.5px"/><rect x="103.35" y="498.56" width="6" height="6" style="fill:#9f9f9f;stroke:#000;stroke-miterlimit:10;stroke-width:0.5px"/><rect x="191.52" y="526.65" width="6" height="6" style="fill:#9f9f9f;stroke:#000;stroke-miterlimit:10;stroke-width:0.5px"/><rect x="279.68" y="546.18" width="6" height="6" style="fill:#9f9f9f;stroke:#000;stroke-miterlimit:10;stroke-width:0.5px"/><rect x="367.85" y="549.04" width="6" height="6" style="fill:#9f9f9f;stroke:#000;stroke-miterlimit:10;stroke-width:0.5px"/><rect x="456.02" y="552.22" width="6" height="6" style="fill:#9f9f9f;stroke:#000;stroke-miterlimit:10;stroke-width:0.5px"/><rect x="544.18" y="552.82" width="6" height="6" style="fill:#9f9f9f;stroke:#000;stroke-miterlimit:10;stroke-width:0.5px"/><rect x="103.35" y="507.86" width="6" height="6" style="fill:#404040;stroke:#000;stroke-miterlimit:10;stroke-width:0.5px"/><rect x="191.52" y="528.76" width="6" height="6" style="fill:#404040;stroke:#000;stroke-miterlimit:10;stroke-width:0.5px"/><rect x="279.68" y="543.97" width="6" height="6" style="fill:#404040;stroke:#000;stroke-miterlimit:10;stroke-width:0.5px"/><rect x="367.85" y="550.22" width="6" height="6" style="fill:#404040;stroke:#000;stroke-miterlimit:10;stroke-width:0.5px"/><rect x="456.02" y="552.23" width="6" height="6" style="fill:#404040;stroke:#000;stroke-miterlimit:10;stroke-width:0.5px"/><rect x="544.18" y="552.82" width="6" height="6" style="fill:#404040;stroke:#000;stroke-miterlimit:10;stroke-width:0.5px"/><rect x="103.35" y="482.24" width="6" height="6" style="fill:gray;stroke:#000;stroke-miterlimit:10;stroke-width:0.5px"/><rect x="191.52" y="526.29" width="6" height="6" style="fill:gray;stroke:#000;stroke-miterlimit:10;stroke-width:0.5px"/><rect x="279.68" y="543.01" width="6" height="6" style="fill:gray;stroke:#000;stroke-miterlimit:10;stroke-width:0.5px"/><rect x="367.85" y="550.33" width="6" height="6" style="fill:gray;stroke:#000;stroke-miterlimit:10;stroke-width:0.5px"/><rect x="456.02" y="552.07" width="6" height="6" style="fill:gray;stroke:#000;stroke-miterlimit:10;stroke-width:0.5px"/><rect x="544.18" y="552.82" width="6" height="6" style="fill:gray;stroke:#000;stroke-miterlimit:10;stroke-width:0.5px"/><rect x="103.35" y="509.44" width="6" height="6" style="fill:#dfdfdf;stroke:#000;stroke-miterlimit:10;stroke-width:0.5px"/><rect x="191.52" y="528.98" width="6" height="6" style="fill:#dfdfdf;stroke:#000;stroke-miterlimit:10;stroke-width:0.5px"/><rect x="279.68" y="543.29" width="6" height="6" style="fill:#dfdfdf;stroke:#000;stroke-miterlimit:10;stroke-width:0.5px"/><rect x="367.85" y="550.6" width="6" height="6" style="fill:#dfdfdf;stroke:#000;stroke-miterlimit:10;stroke-width:0.5px"/><rect x="456.02" y="551.98" width="6" height="6" style="fill:#dfdfdf;stroke:#000;stroke-miterlimit:10;stroke-width:0.5px"/><rect x="544.18" y="552.83" width="6" height="6" style="fill:#dfdfdf;stroke:#000;stroke-miterlimit:10;stroke-width:0.5px"/><rect x="103.35" y="62.13" width="6" height="6" style="fill:#e5e6e7;stroke:#000;stroke-miterlimit:10;stroke-width:0.5px"/><rect x="191.52" y="457.58" width="6" height="6" style="fill:#e5e6e7;stroke:#000;stroke-miterlimit:10;stroke-width:0.5px"/><rect x="279.68" y="533.56" width="6" height="6" style="fill:#e5e6e7;stroke:#000;stroke-miterlimit:10;stroke-width:0.5px"/><rect x="367.85" y="550.14" width="6" height="6" style="fill:#e5e6e7;stroke:#000;stroke-miterlimit:10;stroke-width:0.5px"/><rect x="456.02" y="552.39" width="6" height="6" style="fill:#e5e6e7;stroke:#000;stroke-miterlimit:10;stroke-width:0.5px"/><rect x="544.18" y="552.77" width="6" height="6" style="fill:#e5e6e7;stroke:#000;stroke-miterlimit:10;stroke-width:0.5px"/><path d="M534.65,577.52c-.1-2.48,1.24-3.75,3-3.75a7.71,7.71,0,0,1,3.49,1.12,8,8,0,0,0,3.1,1c.9,0,1.32-.72,1.34-2.08H547c.12,2.77-1.31,3.74-2.85,3.74a8.44,8.44,0,0,1-3.6-1.09,7.55,7.55,0,0,0-3-1.09c-.89,0-1.44.62-1.49,2.11Z"/><path d="M559,568.44H552.8l-.62,4.14a8.52,8.52,0,0,1,1.31-.1,6.75,6.75,0,0,1,3.47.87,4.59,4.59,0,0,1,2.31,4.14c0,3.15-2.5,5.51-6,5.51a7.86,7.86,0,0,1-4-1l.55-1.66a7.15,7.15,0,0,0,3.44.9,3.56,3.56,0,0,0,3.82-3.5c0-2.08-1.41-3.57-4.63-3.57a17.71,17.71,0,0,0-2.24.17l1-7.73H559Z"/><path d="M440.12,577.52c-.1-2.48,1.24-3.75,2.95-3.75a7.74,7.74,0,0,1,3.5,1.12,7.88,7.88,0,0,0,3.1,1c.89,0,1.31-.72,1.34-2.08h1.48c.13,2.77-1.31,3.74-2.85,3.74a8.4,8.4,0,0,1-3.59-1.09,7.64,7.64,0,0,0-3-1.09c-.89,0-1.44.62-1.49,2.11Z"/><path d="M464,568.14a8.19,8.19,0,0,0-1.64.1,6.55,6.55,0,0,0-5.6,5.73h.07a4.8,4.8,0,0,1,3.9-1.86c2.85,0,4.86,2.06,4.86,5.21a5.39,5.39,0,0,1-5.36,5.68c-3.45,0-5.7-2.68-5.7-6.87a10.17,10.17,0,0,1,2.72-7.27,8.83,8.83,0,0,1,5.16-2.38,10.34,10.34,0,0,1,1.59-.12Zm-.62,9.3c0-2.31-1.31-3.69-3.32-3.69a3.59,3.59,0,0,0-3.13,2,1.85,1.85,0,0,0-.25,1c.05,2.65,1.27,4.61,3.55,4.61C462.12,581.31,463.38,579.75,463.38,577.44Z"/><path d="M478.23,574.49c0,5.48-2,8.51-5.6,8.51-3.15,0-5.28-3-5.33-8.29s2.33-8.38,5.6-8.38S478.23,569.36,478.23,574.49Zm-8.75.25c0,4.19,1.29,6.57,3.27,6.57,2.23,0,3.3-2.6,3.3-6.72s-1-6.57-3.27-6.57C470.87,568,469.48,570.35,469.48,574.74Z"/><path d="M352.5,577.52c-.1-2.48,1.24-3.75,2.95-3.75a7.74,7.74,0,0,1,3.5,1.12,7.88,7.88,0,0,0,3.1,1c.89,0,1.31-.72,1.33-2.08h1.49c.13,2.77-1.31,3.74-2.85,3.74a8.4,8.4,0,0,1-3.59-1.09,7.64,7.64,0,0,0-3-1.09c-.89,0-1.44.62-1.49,2.11Z"/><path d="M371.91,568.64h-.05l-2.8,1.51-.42-1.66,3.52-1.88H374v16.11h-2.11Z"/><path d="M382.75,576.23h.05c.3-.43.72-1,1.07-1.37l3.52-4.14H390l-4.64,4.94,5.28,7.06H388L383.87,577l-1.12,1.24v4.51h-2.16v-17.6h2.16Z"/><path d="M264.33,577.52c-.1-2.48,1.24-3.75,2.95-3.75a7.74,7.74,0,0,1,3.5,1.12,7.88,7.88,0,0,0,3.1,1c.89,0,1.31-.72,1.34-2.08h1.49c.12,2.77-1.32,3.74-2.86,3.74a8.4,8.4,0,0,1-3.59-1.09,7.58,7.58,0,0,0-3-1.09c-.89,0-1.43.62-1.48,2.11Z"/><path d="M280.28,581.19a8.72,8.72,0,0,0,1.76-.08,6.05,6.05,0,0,0,3.37-1.56,7.07,7.07,0,0,0,2.13-4.29h-.07a4.75,4.75,0,0,1-3.8,1.74,4.67,4.67,0,0,1-4.76-4.94,5.53,5.53,0,0,1,5.51-5.73c3.3,0,5.33,2.68,5.33,6.8a10.18,10.18,0,0,1-2.78,7.56,8.1,8.1,0,0,1-4.68,2.16,10.07,10.07,0,0,1-2,.12Zm.79-9.28a3.1,3.1,0,0,0,3.1,3.42,3.61,3.61,0,0,0,3.17-1.68,1.41,1.41,0,0,0,.2-.8c0-2.75-1-4.86-3.3-4.86C282.38,568,281.07,569.63,281.07,571.91Z"/><path d="M294.58,576.23h.05c.3-.43.72-1,1.07-1.37l3.52-4.14h2.63l-4.64,4.94,5.28,7.06h-2.65L295.7,577l-1.12,1.24v4.51h-2.15v-17.6h2.15Z"/><path d="M168.9,577.52c-.1-2.48,1.24-3.75,2.95-3.75a7.74,7.74,0,0,1,3.5,1.12,7.88,7.88,0,0,0,3.1,1c.89,0,1.31-.72,1.34-2.08h1.48c.13,2.77-1.31,3.74-2.85,3.74a8.4,8.4,0,0,1-3.59-1.09,7.64,7.64,0,0,0-3-1.09c-.89,0-1.44.62-1.49,2.11Z"/><path d="M194,566.61V568l-7,14.68h-2.26l7-14.26v0h-7.88v-1.81Z"/><path d="M196.3,582.72v-1.34l1.71-1.66c4.12-3.92,6-6,6-8.43a2.88,2.88,0,0,0-3.2-3.15,5.51,5.51,0,0,0-3.42,1.37L196.7,568a7.07,7.07,0,0,1,4.56-1.64,4.53,4.53,0,0,1,4.93,4.69c0,3-2.15,5.38-5.55,8.65l-1.29,1.19v0h7.24v1.81Z"/><path d="M209.79,566H212v8.06H212c.45-.65.89-1.24,1.32-1.79l5.1-6.27h2.68l-6.05,7.09,6.52,9.62H219l-5.51-8.2L212,576.35v6.37h-2.16Z"/><path d="M75.28,577.52c-.1-2.48,1.24-3.75,3-3.75a7.78,7.78,0,0,1,3.5,1.12,7.88,7.88,0,0,0,3.1,1c.89,0,1.31-.72,1.33-2.08h1.49c.13,2.77-1.31,3.74-2.85,3.74a8.4,8.4,0,0,1-3.59-1.09,7.64,7.64,0,0,0-3-1.09c-.89,0-1.44.62-1.49,2.11Z"/><path d="M90.48,580.22a7.26,7.26,0,0,0,3.57,1c2.8,0,3.67-1.79,3.65-3.13,0-2.26-2.06-3.22-4.17-3.22H92.31v-1.64h1.22c1.59,0,3.59-.82,3.59-2.73,0-1.29-.81-2.43-2.82-2.43a5.93,5.93,0,0,0-3.23,1.07l-.57-1.59a7.69,7.69,0,0,1,4.22-1.24c3.17,0,4.61,1.89,4.61,3.85a4,4,0,0,1-3,3.79v0a4.2,4.2,0,0,1,3.59,4.14c0,2.58-2,4.84-5.87,4.84a8.25,8.25,0,0,1-4.2-1.1Z"/><path d="M103.2,580.22a7.26,7.26,0,0,0,3.57,1c2.8,0,3.67-1.79,3.65-3.13,0-2.26-2.06-3.22-4.17-3.22H105v-1.64h1.22c1.59,0,3.6-.82,3.6-2.73,0-1.29-.82-2.43-2.83-2.43a5.93,5.93,0,0,0-3.23,1.07l-.57-1.59a7.69,7.69,0,0,1,4.22-1.24c3.17,0,4.61,1.89,4.61,3.85a4,4,0,0,1-3,3.79v0a4.2,4.2,0,0,1,3.59,4.14c0,2.58-2,4.84-5.87,4.84a8.25,8.25,0,0,1-4.2-1.1Z"/><path d="M115.92,580.22a7.26,7.26,0,0,0,3.57,1c2.8,0,3.67-1.79,3.65-3.13,0-2.26-2.06-3.22-4.17-3.22h-1.21v-1.64H119c1.59,0,3.6-.82,3.6-2.73,0-1.29-.82-2.43-2.83-2.43a5.86,5.86,0,0,0-3.22,1.07l-.57-1.59a7.62,7.62,0,0,1,4.21-1.24c3.17,0,4.61,1.89,4.61,3.85a4,4,0,0,1-3,3.79v0a4.2,4.2,0,0,1,3.59,4.14c0,2.58-2,4.84-5.87,4.84a8.18,8.18,0,0,1-4.19-1.1Z"/><path d="M131,576.23H131c.3-.43.72-1,1.07-1.37l3.52-4.14h2.63l-4.64,4.94,5.28,7.06h-2.65L132.09,577,131,578.21v4.51h-2.16v-17.6H131Z"/><path d="M354.91,443.46a.41.41,0,0,1-.08.39,1.1,1.1,0,0,1-.34.26,2.31,2.31,0,0,1-.41.16l-.29.08a1,1,0,0,1-1-.36,5.06,5.06,0,0,1-.8-1.59c-.25-.72-.5-1.6-.76-2.63l-.84-3.44c-.32-1.25-.69-2.61-1.11-4.05s-.95-2.95-1.56-4.5c.1-.36.24-.59.44-.67a.76.76,0,0,1,.61,0,2.17,2.17,0,0,1,.63.34c.2.15.37.29.49.4a4.67,4.67,0,0,1,1.67-1.55,13.11,13.11,0,0,1,2.59-1.17,18.24,18.24,0,0,1,3-.72,17.68,17.68,0,0,1,2.9-.2,7.5,7.5,0,0,1,2.32.35,1.81,1.81,0,0,1,1.23,1,1.93,1.93,0,0,1-.34,1.66,9.74,9.74,0,0,1-2.43,2.43c-.19.14-.48.36-.88.63s-.84.58-1.35.92L357,432.23l-1.55,1.08c-.48.35-.91.66-1.27.95a4.42,4.42,0,0,0-.74.67.28.28,0,0,0,.17.2,3.61,3.61,0,0,0,.63.2c.32.09.81.2,1.46.35l2.7.64c1.14.27,2.57.63,4.29,1.07s3.81,1,6.29,1.65l.33.13a1.38,1.38,0,0,1,.39.18,2.45,2.45,0,0,1,.35.26.69.69,0,0,1,.22.34.54.54,0,0,1-.11.51,2.15,2.15,0,0,1-.49.36,3.25,3.25,0,0,1-.64.24l-.56.15a2.8,2.8,0,0,1-1.27-.17c-.62-.17-1.37-.4-2.24-.7s-1.83-.62-2.86-1-2.09-.72-3.15-1.06-2.09-.63-3.1-.87a17.31,17.31,0,0,0-2.69-.45Zm-4.18-14a2,2,0,0,0,0,.92,4.35,4.35,0,0,0,.31,1.09,6.3,6.3,0,0,0,.54,1,2,2,0,0,0,.59.62,2.25,2.25,0,0,0,.95-.32c.44-.22,1-.52,1.56-.89s1.23-.79,1.89-1.27,1.3-1,1.89-1.45,1.1-1,1.56-1.43a4.71,4.71,0,0,0,.91-1.2.66.66,0,0,0,0-.79,1.87,1.87,0,0,0-1.33-.19l-1.3.34c-.54.13-1.11.29-1.72.47s-1.23.38-1.87.6a15.91,15.91,0,0,0-1.75.72,8.52,8.52,0,0,0-1.39.85A2.22,2.22,0,0,0,350.73,429.49Z" style="fill:#339"/><path d="M382.34,432.11a10,10,0,0,1-1,2.25,9.35,9.35,0,0,1-1.51,1.91,8.73,8.73,0,0,1-2,1.45,8.37,8.37,0,0,1-2.5.84,4.82,4.82,0,0,1-1.05.16,4,4,0,0,1-1.1-.09,2.22,2.22,0,0,1-.94-.45,1.79,1.79,0,0,1-.57-.94,5.86,5.86,0,0,1-.58-2.6,9.82,9.82,0,0,1,.42-2.81,11.51,11.51,0,0,1,1.24-2.73,12.37,12.37,0,0,1,1.85-2.36,9.62,9.62,0,0,1,2.26-1.71,6.11,6.11,0,0,1,2.5-.77,1.86,1.86,0,0,1,1.61.22,4.24,4.24,0,0,1,1.22,1.42,13,13,0,0,1,1,2.26c.29.87.57,1.77.85,2.7s.57,1.84.87,2.73a14.2,14.2,0,0,0,1,2.41l-1.68.45c-.21-.49-.39-.93-.53-1.31l-.4-1.07c-.12-.33-.25-.65-.39-.95S382.54,432.48,382.34,432.11ZM379,426.53a4.78,4.78,0,0,0-1.75.72,7.75,7.75,0,0,0-1.58,1.35,9.37,9.37,0,0,0-1.28,1.75,11.62,11.62,0,0,0-.91,1.93,7.81,7.81,0,0,0-.43,1.85,3.65,3.65,0,0,0,.14,1.55,2,2,0,0,0,.82,1,2.54,2.54,0,0,0,1.58.25,5.84,5.84,0,0,0,2.43-1.39,9.91,9.91,0,0,0,1.79-2.25,10.81,10.81,0,0,0,1.08-2.57,7.58,7.58,0,0,0,.28-2.34,2.48,2.48,0,0,0-.61-1.59A1.48,1.48,0,0,0,379,426.53Z" style="fill:#339"/><path d="M394.9,421.83q.06-.4-.45-.33a5,5,0,0,0-1.33.47,17.23,17.23,0,0,0-1.79,1,15.77,15.77,0,0,0-1.81,1.35,8.74,8.74,0,0,0-1.4,1.48,2.35,2.35,0,0,0-.57,1.36l2,7.71-1.88.5a4,4,0,0,1-.49-.95c-.17-.45-.36-1-.56-1.6s-.4-1.29-.6-2-.4-1.47-.58-2.22-.36-1.49-.52-2.21-.31-1.39-.43-2-.21-1.1-.28-1.51a4.34,4.34,0,0,1-.09-.84,3.58,3.58,0,0,1,.47-.49,1.55,1.55,0,0,1,.6-.33c.27-.06.5.07.69.38a4.6,4.6,0,0,1,.46,1.12,12.1,12.1,0,0,1,.26,1.28,7.55,7.55,0,0,0,.14.86,25.91,25.91,0,0,1,3.37-3.63,8.3,8.3,0,0,1,2.64-1.6,2.73,2.73,0,0,1,2,0,3.9,3.9,0,0,1,1.52,1.34,9.87,9.87,0,0,1,1.16,2.3c.33.9.64,1.87.94,2.89s.57,2.07.84,3.13.55,2.08.86,3a2.34,2.34,0,0,1-.34.26.48.48,0,0,1-.22.05h-.35a4.19,4.19,0,0,0-.66.11,12.35,12.35,0,0,1-1-2.46c-.28-.94-.54-1.91-.79-2.91s-.53-2-.82-3A14.42,14.42,0,0,0,394.9,421.83Z" style="fill:#339"/><path d="M411.72,425.91a21.88,21.88,0,0,1-2.6,2.85,9.16,9.16,0,0,1-2.77,1.77,5.39,5.39,0,0,1-2.86.3,3.89,3.89,0,0,1-3.62-4.41,7.07,7.07,0,0,1,.55-2.72,8.88,8.88,0,0,1,1.54-2.44,10.82,10.82,0,0,1,2.22-1.94,10.28,10.28,0,0,1,2.66-1.25,8.45,8.45,0,0,1,2.85-.35c-.06-.22-.14-.58-.24-1.05s-.22-1-.35-1.61-.26-1.22-.4-1.88-.28-1.28-.4-1.88-.23-1.13-.32-1.6-.16-.82-.21-1.05-.11-.71-.14-1a2.27,2.27,0,0,1,.07-.87,1.54,1.54,0,0,1,.41-.68,2,2,0,0,1,.89-.44q.74,2.72,1.26,5.34c.36,1.75.73,3.5,1.11,5.27s.82,3.55,1.32,5.36a50.47,50.47,0,0,0,1.9,5.63,1.52,1.52,0,0,1,0,1,1.27,1.27,0,0,1-1.66.36,2,2,0,0,1-.61-.74,4.93,4.93,0,0,1-.37-1C411.87,426.48,411.79,426.17,411.72,425.91Zm-9.5,1.6a2,2,0,0,0,1,1.32,1.91,1.91,0,0,0,1.62-.15,6.76,6.76,0,0,0,1.39-.65,18.61,18.61,0,0,0,1.86-1.23,19.29,19.29,0,0,0,1.73-1.46,4.14,4.14,0,0,0,1-1.38l-1-3.76a.83.83,0,0,0-.32-.49,1.14,1.14,0,0,0-.51-.2,1.9,1.9,0,0,0-.58,0l-.49.1a4.35,4.35,0,0,0-1.39.46,8.88,8.88,0,0,0-1.51,1,10,10,0,0,0-1.4,1.37,7.62,7.62,0,0,0-1.08,1.62,5.7,5.7,0,0,0-.56,1.74A3.24,3.24,0,0,0,402.22,427.51Z" style="fill:#339"/><path d="M415.83,422.41a6.06,6.06,0,0,1,0-3.4,7.82,7.82,0,0,1,1.47-2.76,9.91,9.91,0,0,1,2.35-2.07,14.12,14.12,0,0,1,2.65-1.35,6.47,6.47,0,0,1,2.51-.33,6.29,6.29,0,0,1,2.25.6,5.25,5.25,0,0,1,1.72,1.39,4.31,4.31,0,0,1,.89,2,7.15,7.15,0,0,1,.13,3.45,7.29,7.29,0,0,1-1.33,2.86A8.8,8.8,0,0,1,426,425a12.29,12.29,0,0,1-3.26,1.37,6,6,0,0,1-4.38-.16Q416.6,425.31,415.83,422.41Zm2.13.16a3.93,3.93,0,0,0,.64,1.45,1.75,1.75,0,0,0,.93.66,2.91,2.91,0,0,0,1.23.07,13.83,13.83,0,0,0,1.58-.32,14.15,14.15,0,0,0,2.55-1,6.81,6.81,0,0,0,2-1.48,5,5,0,0,0,1.12-2.07,5.46,5.46,0,0,0-.1-2.73,5.52,5.52,0,0,0-.63-1.44,3.73,3.73,0,0,0-1-1.07,3.39,3.39,0,0,0-2.91-.46c-.71.31-1.41.65-2.11,1a6.53,6.53,0,0,0-1.85,1.42,5.77,5.77,0,0,0-1.23,2.29A9.8,9.8,0,0,0,418,422.57Z" style="fill:#339"/><path d="M432.72,423.15c-.18-.61-.37-1.4-.57-2.36s-.43-2-.68-3.07-.53-2.18-.83-3.27a27.62,27.62,0,0,0-1-2.95.76.76,0,0,1,.17-.81,1.85,1.85,0,0,1,.81-.43q.18,0,.42.36a8,8,0,0,1,.48,1c.16.37.31.73.45,1.1a7.08,7.08,0,0,0,.36.78,3.6,3.6,0,0,1,.82-1.53,7.06,7.06,0,0,1,1.54-1.33,8.75,8.75,0,0,1,1.91-.89,5.42,5.42,0,0,1,1.95-.3,3.12,3.12,0,0,1,1.64.52,2.53,2.53,0,0,1,1,1.54,4.46,4.46,0,0,1,.91-1.68,11,11,0,0,1,1.74-1.73,13.61,13.61,0,0,1,2.15-1.43,8.36,8.36,0,0,1,2.17-.82,3.09,3.09,0,0,1,1.78.09,1.75,1.75,0,0,1,1,1.33l3.44,10.37s-.11.1-.35.22a4.81,4.81,0,0,1-.79.32,4.1,4.1,0,0,1-.85.19c-.27,0-.42,0-.46-.18-.25-.82-.48-1.69-.68-2.62s-.42-1.85-.66-2.79-.52-1.86-.84-2.75a11.23,11.23,0,0,0-1.2-2.46,14.9,14.9,0,0,0-1.41.59,7.26,7.26,0,0,0-1.48.95,6.54,6.54,0,0,0-1.29,1.49,6.64,6.64,0,0,0-.85,2.22,12.51,12.51,0,0,0-.19,3.11,19.88,19.88,0,0,0,.71,4.16.73.73,0,0,1-.4.64,2.46,2.46,0,0,1-.85.3,2.36,2.36,0,0,1-.84,0c-.25-.06-.37-.15-.35-.29-.08-.82-.15-1.54-.22-2.17s-.16-1.2-.27-1.72a12.7,12.7,0,0,0-.38-1.45,11.44,11.44,0,0,0-.52-1.36c-.2-.45-.44-.93-.71-1.43s-.59-1.08-1-1.72a7.4,7.4,0,0,0-2.48,1.11,5.34,5.34,0,0,0-1.48,1.61,5.2,5.2,0,0,0-.66,2,9.76,9.76,0,0,0,0,2.23,14.56,14.56,0,0,0,.44,2.36c.21.8.46,1.58.73,2.35l-.73.52a2.43,2.43,0,0,1-.82.41.72.72,0,0,1-.41,0A1.39,1.39,0,0,1,432.72,423.15Z" style="fill:#339"/><path d="M466,412a.91.91,0,0,1,0-.58,3.89,3.89,0,0,1,.31-.61,5.85,5.85,0,0,1,.38-.52,3.5,3.5,0,0,0,.27-.31,2.45,2.45,0,0,0,1.15,1.54,3.34,3.34,0,0,0,1.86.31,7.77,7.77,0,0,0,2.26-.6,17.18,17.18,0,0,0,2.4-1.25,18.28,18.28,0,0,0,2.21-1.63,16.68,16.68,0,0,0,1.74-1.71,5.54,5.54,0,0,0,1-1.51.94.94,0,0,0-.07-1l-12.45.52a2.71,2.71,0,0,1-.62-.09,4.71,4.71,0,0,1-.73-.22,2.47,2.47,0,0,1-.62-.34.83.83,0,0,1-.35-.47,3,3,0,0,1,.26-2.16,7.91,7.91,0,0,1,1.58-2.11,16.94,16.94,0,0,1,2.39-1.94c.91-.61,1.79-1.16,2.67-1.65s1.68-.89,2.42-1.22,1.31-.56,1.68-.69a1.89,1.89,0,0,0,.54,0,4.74,4.74,0,0,1,.75-.06,1.7,1.7,0,0,1,.66.09.41.41,0,0,1,.27.43.79.79,0,0,1-.29.82,5.31,5.31,0,0,1-1.19.84,18.93,18.93,0,0,1-1.79.86c-.67.28-1.37.59-2.07.9s-1.4.66-2.06,1a11.58,11.58,0,0,0-1.76,1.1,4.51,4.51,0,0,0-1.15,1.22,1.74,1.74,0,0,0-.23,1.37s.08.08.21.1.36,0,.71,0h4l3.84,0,5.43.09a2.84,2.84,0,0,1,.66,1.62,3.41,3.41,0,0,1-.36,1.68,7.5,7.5,0,0,1-1.16,1.71,14.58,14.58,0,0,1-1.69,1.63,22.22,22.22,0,0,1-2,1.45c-.7.45-1.37.86-2,1.22a20.27,20.27,0,0,1-1.82.9,8,8,0,0,1-1.39.48,7.43,7.43,0,0,1-1.36.19,10.48,10.48,0,0,1-1.85-.05,6.85,6.85,0,0,1-1.73-.43A1.41,1.41,0,0,1,466,412Z" style="fill:#339"/><path d="M484.48,405.79a8.9,8.9,0,0,1-.61-3.67,9.25,9.25,0,0,1,.85-3.53,8.49,8.49,0,0,1,2.14-2.84,7.6,7.6,0,0,1,3.27-1.67A5.84,5.84,0,0,1,491,394a8,8,0,0,1,1.21,0,8.58,8.58,0,0,1,1.31.18,4.61,4.61,0,0,1,1.2.42,2.94,2.94,0,0,1,.92.74,2,2,0,0,1,.42,1.12,5.94,5.94,0,0,1-1.9,1.47,20.88,20.88,0,0,1-2.37,1l-2.41.84a7,7,0,0,0-2,1,2.87,2.87,0,0,0-1.1,1.44,3.21,3.21,0,0,0,.27,2.2,3.32,3.32,0,0,0,1.61,1.53,3.74,3.74,0,0,0,2,.23,7,7,0,0,0,2.17-.7,18.51,18.51,0,0,0,2.11-1.24c.68-.45,1.31-.91,1.88-1.37l1.42-1.13a.66.66,0,0,1,.56.08.77.77,0,0,1,.34.45,5.74,5.74,0,0,1-1.26,2.21,11.1,11.1,0,0,1-2.27,1.94,12.87,12.87,0,0,1-2.86,1.4,10,10,0,0,1-3,.56,6.17,6.17,0,0,1-2.74-.55A4.44,4.44,0,0,1,484.48,405.79Zm5.9-10a8.81,8.81,0,0,0-1,.36,5,5,0,0,0-1.05.62,3.42,3.42,0,0,0-.78.84,1.26,1.26,0,0,0-.15,1l5.37-2.44a2,2,0,0,0-1.15-.51A3.42,3.42,0,0,0,490.38,395.83Z" style="fill:#339"/><path d="M498.6,396.25l-.57-1.93,4.23-1.14-2-7.31a1.19,1.19,0,0,1,.2-.58,1.65,1.65,0,0,1,.42-.48.89.89,0,0,1,.55-.19.87.87,0,0,1,.61.29,13.59,13.59,0,0,1,.82,1.78c.23.61.43,1.23.62,1.85s.36,1.25.53,1.87.37,1.23.58,1.83a6.7,6.7,0,0,1,1-.35l1.14-.33,1.13-.33c.36-.1.69-.21,1-.32l.45,2.06-4.15,1c.24.94.47,1.8.7,2.59s.45,1.56.68,2.31.45,1.51.67,2.29.46,1.63.71,2.55a1.52,1.52,0,0,1-1.39.46,1.83,1.83,0,0,1-1-.91,8,8,0,0,1-.71-1.83c-.19-.74-.39-1.5-.57-2.28s-.38-1.54-.57-2.26a7.77,7.77,0,0,0-.7-1.8Z" style="fill:#339"/><path d="M516.05,400.82a20.79,20.79,0,0,0,2.67-2,17.38,17.38,0,0,0,2-2,4.66,4.66,0,0,0,.93-1.6c.11-.44,0-.72-.42-.82a4.1,4.1,0,0,0-2.05.34,28.53,28.53,0,0,0-4,1.92,3.86,3.86,0,0,1-1.54.07,4,4,0,0,1-1.29-.43,3.1,3.1,0,0,1-.95-.75,2.46,2.46,0,0,1-.5-.92A2.77,2.77,0,0,1,511,393a6.73,6.73,0,0,1,1-1.76,11.2,11.2,0,0,1,1.67-1.72,14.23,14.23,0,0,1,2.15-1.5,14.84,14.84,0,0,1,2.43-1.11,9.73,9.73,0,0,1,2.54-.55.73.73,0,0,1,1,.39,12.46,12.46,0,0,1,.63,1.9,8.15,8.15,0,0,0-2.16-.07,10.86,10.86,0,0,0-2.2.44,11.49,11.49,0,0,0-2,.87,7.22,7.22,0,0,0-1.6,1.21,4.31,4.31,0,0,0-1,1.49,2.68,2.68,0,0,0-.11,1.68.61.61,0,0,0,.54.52,2.56,2.56,0,0,0,.92-.1,8.36,8.36,0,0,0,1-.4,4.89,4.89,0,0,1,.87-.34,18.8,18.8,0,0,1,4.61-1.82,3.66,3.66,0,0,1,2.48.11,1.39,1.39,0,0,1,.6,1.53,6.26,6.26,0,0,1-1,2.44,16.81,16.81,0,0,1-2.4,2.87,22.6,22.6,0,0,1-3.5,2.77.39.39,0,0,1-.3-.11,3.26,3.26,0,0,1-.39-.32,4.25,4.25,0,0,1-.37-.36A1.66,1.66,0,0,0,516.05,400.82Z" style="fill:#339"/><path d="M338.17,193.2a7.8,7.8,0,0,0,1.67-.24c.7-.17,1.45-.36,2.27-.6s1.67-.49,2.56-.76,1.74-.51,2.55-.73,1.55-.39,2.23-.51a6.5,6.5,0,0,1,1.64-.14l.37,1.41a19.36,19.36,0,0,1-2.07.7c-.88.25-1.83.52-2.84.79s-2,.59-3,.91a16.32,16.32,0,0,0-2.56,1c0,.65.07,1.2.12,1.63s.11.8.17,1.12.13.6.21.87.17.56.28.86l.35,1.06c.14.4.28.9.44,1.49a26.6,26.6,0,0,0,2.78-.91c.88-.34,1.76-.69,2.62-1.06s1.74-.73,2.62-1.07a25.82,25.82,0,0,1,2.74-.89l.41,1.54L343.27,204l1.4,4.59c1.42-.38,2.69-.76,3.81-1.15s2.2-.77,3.21-1.14l3-1.08c1-.36,2.05-.68,3.19-1a1.87,1.87,0,0,1,0,.64,2.53,2.53,0,0,1-.19.73,1.58,1.58,0,0,1-.4.57.5.5,0,0,1-.57.09c-1,.4-2.12.82-3.35,1.27l-3.74,1.37L346,210.19l-3.09,1.1Z" style="fill:#339"/><path d="M369.81,199.06a10.91,10.91,0,0,1-1,2.25,9.39,9.39,0,0,1-1.52,1.91,8.19,8.19,0,0,1-2,1.45,8.44,8.44,0,0,1-2.51.84,4.63,4.63,0,0,1-1,.16,3.68,3.68,0,0,1-1.11-.09,2.18,2.18,0,0,1-.93-.45,1.75,1.75,0,0,1-.57-.94,5.87,5.87,0,0,1-.59-2.6,9.89,9.89,0,0,1,.43-2.81,11.47,11.47,0,0,1,1.23-2.73,12.78,12.78,0,0,1,1.85-2.36,9.83,9.83,0,0,1,2.26-1.71,6.15,6.15,0,0,1,2.5-.77,1.88,1.88,0,0,1,1.62.22,4.22,4.22,0,0,1,1.21,1.42,12.28,12.28,0,0,1,1,2.26q.42,1.3.84,2.7c.28.92.57,1.84.87,2.74a14.93,14.93,0,0,0,1,2.4l-1.67.45c-.21-.49-.39-.93-.54-1.31L370.7,201c-.12-.33-.25-.65-.39-1S370,199.43,369.81,199.06Zm-3.34-5.58a4.83,4.83,0,0,0-1.76.72,8.38,8.38,0,0,0-1.58,1.35,10.22,10.22,0,0,0-1.28,1.75,11.55,11.55,0,0,0-.9,1.93,7.86,7.86,0,0,0-.44,1.85,3.49,3.49,0,0,0,.15,1.55,1.93,1.93,0,0,0,.82,1,2.58,2.58,0,0,0,1.57.26,6,6,0,0,0,2.43-1.4,9.68,9.68,0,0,0,1.8-2.25,10.38,10.38,0,0,0,1.07-2.57,7.29,7.29,0,0,0,.28-2.34,2.49,2.49,0,0,0-.6-1.59A1.5,1.5,0,0,0,366.47,193.48Z" style="fill:#339"/><path d="M371.22,189.83a.57.57,0,0,1,.15-.65,1.69,1.69,0,0,1,.63-.31,1.13,1.13,0,0,1,1.07.23,4,4,0,0,1,.85,1,7.88,7.88,0,0,1,.61,1.19c.16.4.29.69.36.86a14.57,14.57,0,0,1,1.5-1.93,12.86,12.86,0,0,1,2-1.74,14,14,0,0,1,2.67-1.44,18.36,18.36,0,0,1,3.5-1.05.85.85,0,0,1,1,0,1.72,1.72,0,0,1,.6.84,2.33,2.33,0,0,1,.12,1.11,1,1,0,0,1-.48.79,4.22,4.22,0,0,0-2.12-.25,8.11,8.11,0,0,0-2.33.64,10.58,10.58,0,0,0-2.21,1.3,9.07,9.07,0,0,0-1.76,1.8,5.9,5.9,0,0,0-1,2.11,3.83,3.83,0,0,0,.12,2.22,11.27,11.27,0,0,0,.46,1.35c.18.42.37.85.55,1.28s.37.85.55,1.28a9.9,9.9,0,0,1,.45,1.33,5.36,5.36,0,0,0-.94.42,2.11,2.11,0,0,1-.59.27.59.59,0,0,1-.49-.11,3,3,0,0,1-.64-.76c-.05-.11-.17-.41-.37-.93s-.45-1.13-.73-1.86-.6-1.54-.95-2.41-.69-1.72-1-2.56l-.91-2.33C371.6,190.82,371.38,190.25,371.22,189.83Z" style="fill:#339"/><path d="M388,189.49l-.57-1.94,4.23-1.13-2-7.31a1.22,1.22,0,0,1,.2-.59,2,2,0,0,1,.42-.48.89.89,0,0,1,.55-.18.87.87,0,0,1,.61.29,13,13,0,0,1,.82,1.78c.23.61.43,1.22.62,1.85s.36,1.24.53,1.87.37,1.23.58,1.82a8.15,8.15,0,0,1,1-.35q.57-.15,1.14-.33l1.13-.32q.54-.16,1-.33l.45,2.07-4.15,1c.24.93.47,1.8.7,2.59s.45,1.55.68,2.3.45,1.52.67,2.3.46,1.63.71,2.55a1.52,1.52,0,0,1-1.39.46,1.85,1.85,0,0,1-1-.92,7.76,7.76,0,0,1-.71-1.82c-.19-.74-.39-1.5-.57-2.28s-.38-1.54-.57-2.27a7.68,7.68,0,0,0-.7-1.8Z" style="fill:#339"/><path d="M413.13,191.75c-.2-.72-.41-1.51-.64-2.35s-.49-1.63-.77-2.35a9.35,9.35,0,0,0-.87-1.79c-.3-.48-.62-.71-1-.7a23.32,23.32,0,0,0-2.4.27,6.24,6.24,0,0,0-1.78.53,2.91,2.91,0,0,0-1.14,1,4,4,0,0,0-.54,1.73,11.94,11.94,0,0,0,0,2.65,37.49,37.49,0,0,0,.63,3.75l-2.2.59q-.71-3-1.48-5.59c-.52-1.73-1-3.34-1.48-4.84s-.88-2.89-1.23-4.17a25.12,25.12,0,0,1-.72-3.55.93.93,0,0,1,.45-.69,1.11,1.11,0,0,1,.75-.1,1.88,1.88,0,0,1,.77.34,1.28,1.28,0,0,1,.48.62c0,.17.08.45.17.83s.19.83.31,1.33.26,1.06.41,1.66.3,1.17.47,1.75.33,1.13.5,1.66a11.93,11.93,0,0,0,.53,1.35,12.17,12.17,0,0,1,1.3-1.29,7.67,7.67,0,0,1,1.48-1,10.09,10.09,0,0,1,1.77-.73,10.85,10.85,0,0,1,2.17-.42,10,10,0,0,1,2.08.66,4.14,4.14,0,0,1,1.29.94,4.43,4.43,0,0,1,.81,1.27c.19.47.39,1,.58,1.64s.41,1.32.66,2.09a24.06,24.06,0,0,0,1,2.57.92.92,0,0,1-.4.47,2.44,2.44,0,0,1-.77.35,1.56,1.56,0,0,1-.8,0A.63.63,0,0,1,413.13,191.75Z" style="fill:#339"/><path d="M427.24,186.2a7.08,7.08,0,0,1-1.2,1.39,12.83,12.83,0,0,1-1.65,1.26,15.55,15.55,0,0,1-1.81,1,9.93,9.93,0,0,1-1.69.63,7.19,7.19,0,0,1-1.21.21,5.59,5.59,0,0,1-1.36,0,3.2,3.2,0,0,1-1.19-.43,1.64,1.64,0,0,1-.7-1,7.11,7.11,0,0,1-.39-2.57,8.25,8.25,0,0,1,.46-2.51,9.84,9.84,0,0,1,1.2-2.32,11.61,11.61,0,0,1,1.77-2,11.22,11.22,0,0,1,2.18-1.52,9.78,9.78,0,0,1,2.44-.92,2.37,2.37,0,0,1,1.66.18,5.87,5.87,0,0,1,1.5,1q1.32,4.92,2.63,9.71t2.94,9.62l-.44.12-.34.1-.41.12-.64.17Zm-8.94,1.49a1.52,1.52,0,0,0,.43.79,1.14,1.14,0,0,0,.65.27,2.57,2.57,0,0,0,.81-.07l.89-.22a10.08,10.08,0,0,0,1.88-.72,6.31,6.31,0,0,0,1.62-1.12,4.11,4.11,0,0,0,1-1.59,3.47,3.47,0,0,0,0-2.07c0-.17-.09-.46-.15-.88s-.13-.83-.22-1.25a4.6,4.6,0,0,0-.39-1.07c-.16-.3-.36-.41-.6-.35a9.24,9.24,0,0,0-2.59,1.16,8.5,8.5,0,0,0-2.1,1.9,6.88,6.88,0,0,0-1.24,2.44A5.25,5.25,0,0,0,418.3,187.69Z" style="fill:#339"/><path d="M430.48,183.8c-.08-.3-.22-.72-.42-1.25s-.4-1.11-.61-1.74-.4-1.28-.57-1.94a10.65,10.65,0,0,1-.31-1.85,3.71,3.71,0,0,1,.15-1.46,1.18,1.18,0,0,1,.87-.79,2.13,2.13,0,0,1,1.23.3,1.26,1.26,0,0,1,.49.82,4.64,4.64,0,0,1,.05,1.27c0,.49-.06,1.05-.07,1.68a13.42,13.42,0,0,0,.13,2,9.48,9.48,0,0,0,.66,2.31,2.21,2.21,0,0,0,1.17,1,3.5,3.5,0,0,0,1.63.17,6.31,6.31,0,0,0,1.84-.52,9.18,9.18,0,0,0,1.78-1,8.91,8.91,0,0,0,1.47-1.31,4.79,4.79,0,0,0,.9-1.42,12.68,12.68,0,0,0-.3-2.14,16.58,16.58,0,0,0-.54-1.81c-.2-.58-.42-1.16-.66-1.75s-.46-1.26-.68-2a1.21,1.21,0,0,1,1.39-.25,3.13,3.13,0,0,1,1.16,1.28,14,14,0,0,1,1,2.29c.31.91.59,1.84.86,2.81s.53,1.92.77,2.84a22.33,22.33,0,0,0,.75,2.33.94.94,0,0,1-1.25.45,3.54,3.54,0,0,1-1.58-1.78,7.23,7.23,0,0,1-1,1.11,12.28,12.28,0,0,1-1.8,1.37,13.77,13.77,0,0,1-2.26,1.17,6.49,6.49,0,0,1-2.38.51,4,4,0,0,1-2.17-.59A4.33,4.33,0,0,1,430.48,183.8Z" style="fill:#339"/><path d="M456.2,175.91a11.24,11.24,0,0,1-1,2.26,9.67,9.67,0,0,1-1.52,1.91,8.43,8.43,0,0,1-2,1.44,8.85,8.85,0,0,1-2.51.85,6.11,6.11,0,0,1-1.05.16,3.64,3.64,0,0,1-1.1-.1,2.24,2.24,0,0,1-.93-.45,1.75,1.75,0,0,1-.57-.94,5.87,5.87,0,0,1-.59-2.6,9.77,9.77,0,0,1,.43-2.8,11.36,11.36,0,0,1,1.23-2.74,12.78,12.78,0,0,1,1.85-2.36,9.83,9.83,0,0,1,2.26-1.71,6.2,6.2,0,0,1,2.5-.77,1.92,1.92,0,0,1,1.62.22,4.16,4.16,0,0,1,1.21,1.43,11.88,11.88,0,0,1,1,2.25q.42,1.31.84,2.7c.28.93.57,1.84.87,2.74a15.45,15.45,0,0,0,1,2.41l-1.67.44c-.22-.49-.39-.93-.54-1.31l-.39-1.07c-.12-.33-.25-.65-.39-1S456.39,176.28,456.2,175.91Zm-3.34-5.58a4.68,4.68,0,0,0-1.76.73,8.32,8.32,0,0,0-1.58,1.34,10.22,10.22,0,0,0-1.28,1.75,11.93,11.93,0,0,0-.9,1.93,7.86,7.86,0,0,0-.44,1.85,3.49,3.49,0,0,0,.15,1.55,1.93,1.93,0,0,0,.82,1,2.51,2.51,0,0,0,1.57.26,6,6,0,0,0,2.43-1.39,9.53,9.53,0,0,0,1.8-2.26,10.38,10.38,0,0,0,1.07-2.57,7.26,7.26,0,0,0,.28-2.34,2.44,2.44,0,0,0-.6-1.58A1.48,1.48,0,0,0,452.86,170.33Z" style="fill:#339"/><path d="M458.86,168.89c-.21-.77-.44-1.53-.7-2.28s-.53-1.51-.8-2.27-.54-1.5-.8-2.25-.49-1.5-.69-2.27a.89.89,0,0,1,.06-.77,1.1,1.1,0,0,1,.64-.39l.24-.07.25,0a18.8,18.8,0,0,1,1.09,2.4c.32.86.63,1.76,1,2.72l1,3c.34,1,.75,2.13,1.21,3.25a12.79,12.79,0,0,0,1-1.05c.42-.49.88-1,1.38-1.67l1.58-1.94c.55-.67,1.07-1.29,1.58-1.85s1-1,1.36-1.44a2.78,2.78,0,0,1,.93-.67.66.66,0,0,1,.42,0,1.45,1.45,0,0,1,.42.32,13.76,13.76,0,0,1-1.55,2.71c-.62.86-1.27,1.69-2,2.5s-1.37,1.62-2.06,2.41a20.86,20.86,0,0,0-1.81,2.42c1.34,0,2.63,0,3.87.1s2.43.1,3.58.12,2.26,0,3.35-.05a21.61,21.61,0,0,0,3.23-.41c.06.22.1.42.13.59a.92.92,0,0,1,0,.47.79.79,0,0,1-.27.38,2,2,0,0,1-.64.3l-.22.06c-.73,0-1.63,0-2.69,0s-2.2.11-3.4.19-2.42.13-3.64.18-2.35.08-3.38.08a8.06,8.06,0,0,0,.28.85c.14.37.28.77.41,1.2a10,10,0,0,1,.31,1.31,3,3,0,0,1,0,1.2,1.47,1.47,0,0,1-.54.88,1.89,1.89,0,0,1-1.28.29Z" style="fill:#339"/><path d="M477.72,171.19a8.73,8.73,0,0,1-.61-3.67A9.3,9.3,0,0,1,478,164a8.49,8.49,0,0,1,2.14-2.84,7.53,7.53,0,0,1,3.27-1.66,4.63,4.63,0,0,1,.87-.14,8,8,0,0,1,1.21,0,8.27,8.27,0,0,1,1.3.17,4.69,4.69,0,0,1,1.21.43,2.77,2.77,0,0,1,.91.74,1.88,1.88,0,0,1,.42,1.11,5.82,5.82,0,0,1-1.89,1.48,21.78,21.78,0,0,1-2.38,1l-2.4.84a7.54,7.54,0,0,0-2,1,2.91,2.91,0,0,0-1.09,1.45,3.23,3.23,0,0,0,.26,2.19,3.45,3.45,0,0,0,1.62,1.54,3.84,3.84,0,0,0,2,.23,7.2,7.2,0,0,0,2.16-.71,17.19,17.19,0,0,0,2.12-1.23c.68-.46,1.31-.92,1.88-1.38s1-.84,1.42-1.13a.71.71,0,0,1,.55.08.72.72,0,0,1,.34.46,5.55,5.55,0,0,1-1.25,2.2,10.8,10.8,0,0,1-2.27,1.94,12.52,12.52,0,0,1-2.87,1.4,9.63,9.63,0,0,1-3,.57,6.28,6.28,0,0,1-2.74-.55A4.36,4.36,0,0,1,477.72,171.19Zm5.9-9.95a5.68,5.68,0,0,0-1,.36,4.61,4.61,0,0,0-1,.62,3.26,3.26,0,0,0-.78.84,1.23,1.23,0,0,0-.15,1l5.36-2.43a2,2,0,0,0-1.14-.52A3.4,3.4,0,0,0,483.62,161.24Z" style="fill:#339"/><path d="M501.61,149.43l.39-.1a3,3,0,0,1,.61-.11,2.52,2.52,0,0,1,.62,0,.66.66,0,0,1,.44.32,13.92,13.92,0,0,1,1.48-.81,19.16,19.16,0,0,1,2.08-.83,25,25,0,0,1,2.47-.71,18.27,18.27,0,0,1,2.63-.44,12.45,12.45,0,0,1,2.59,0,7.47,7.47,0,0,1,2.31.59,5.27,5.27,0,0,1,1.84,1.33,6.86,6.86,0,0,1,1.41,4.8,9.7,9.7,0,0,1-.83,2.73A16.51,16.51,0,0,1,518,159a24.69,24.69,0,0,1-2.23,2.58,25.88,25.88,0,0,1-2.55,2.27,22,22,0,0,1-2.59,1.79,14,14,0,0,1-2.37,1.13,4.46,4.46,0,0,1-1.9.32Zm16.77,2.25a4.47,4.47,0,0,0-1.55-2.05,5.88,5.88,0,0,0-2.29-.94,8.93,8.93,0,0,0-2.69-.05,17,17,0,0,0-2.77.58,17.25,17.25,0,0,0-2.51,1,11.76,11.76,0,0,0-1.9,1.13l3.61,13.49a8.13,8.13,0,0,0,2.13-1,19.32,19.32,0,0,0,2.43-1.79,24.09,24.09,0,0,0,2.37-2.37,18.37,18.37,0,0,0,2-2.69,11,11,0,0,0,1.17-2.74A5,5,0,0,0,518.38,151.68Z" style="fill:#339"/><path d="M534.78,154.86a11.16,11.16,0,0,1-1,2.25,9.67,9.67,0,0,1-1.52,1.91,8.52,8.52,0,0,1-4.52,2.29,5.27,5.27,0,0,1-1.05.16,4,4,0,0,1-1.1-.09,2.39,2.39,0,0,1-.93-.46,1.71,1.71,0,0,1-.57-.94,5.82,5.82,0,0,1-.59-2.59,9.84,9.84,0,0,1,.43-2.81,11.47,11.47,0,0,1,1.23-2.73,13.2,13.2,0,0,1,1.85-2.37,10.43,10.43,0,0,1,2.26-1.71,6.13,6.13,0,0,1,2.5-.76,1.88,1.88,0,0,1,1.62.22,4.12,4.12,0,0,1,1.21,1.42,11.72,11.72,0,0,1,1,2.26c.28.87.56,1.77.84,2.69s.57,1.84.87,2.74a15.45,15.45,0,0,0,1,2.41l-1.67.45c-.22-.49-.39-.93-.54-1.31l-.39-1.07c-.12-.34-.25-.65-.39-1S535,155.23,534.78,154.86Zm-3.34-5.59a5,5,0,0,0-1.76.73,8,8,0,0,0-1.58,1.35,9.85,9.85,0,0,0-1.28,1.75,11.84,11.84,0,0,0-.9,1.92,8,8,0,0,0-.44,1.86,3.51,3.51,0,0,0,.15,1.55,1.87,1.87,0,0,0,.82,1,2.44,2.44,0,0,0,1.57.26,6,6,0,0,0,2.43-1.39,9.68,9.68,0,0,0,1.8-2.25,10.54,10.54,0,0,0,1.07-2.57,7.29,7.29,0,0,0,.28-2.34,2.45,2.45,0,0,0-.6-1.59A1.5,1.5,0,0,0,531.44,149.27Z" style="fill:#339"/><path d="M537,149.57l-.56-1.94,4.23-1.13-2-7.31a1.32,1.32,0,0,1,.19-.59,2,2,0,0,1,.42-.48.91.91,0,0,1,.56-.18.88.88,0,0,1,.61.28,13.72,13.72,0,0,1,.82,1.79c.23.61.43,1.22.61,1.85s.37,1.24.54,1.87.37,1.23.58,1.82a7.55,7.55,0,0,1,1-.35l1.14-.33,1.12-.32c.37-.11.7-.22,1-.33l.45,2.06-4.15,1c.24.94.47,1.81.69,2.6s.46,1.55.68,2.3.45,1.52.68,2.3.46,1.63.71,2.55a1.53,1.53,0,0,1-1.4.46,1.91,1.91,0,0,1-1-.92,7.35,7.35,0,0,1-.71-1.82q-.3-1.11-.57-2.28c-.19-.79-.38-1.54-.57-2.27a7.67,7.67,0,0,0-.71-1.8Z" style="fill:#339"/><path d="M561.24,147.77a10.36,10.36,0,0,1-1,2.25,9.62,9.62,0,0,1-1.51,1.91,8.73,8.73,0,0,1-2,1.45,8.47,8.47,0,0,1-2.5.84,5.51,5.51,0,0,1-1.05.16,4,4,0,0,1-1.1-.09,2.36,2.36,0,0,1-.94-.46,1.75,1.75,0,0,1-.57-.94,5.82,5.82,0,0,1-.58-2.59,9.82,9.82,0,0,1,.42-2.81,11.12,11.12,0,0,1,1.24-2.73,12.76,12.76,0,0,1,1.85-2.37,10.2,10.2,0,0,1,2.26-1.71,6.09,6.09,0,0,1,2.5-.76,1.83,1.83,0,0,1,1.61.22,4.14,4.14,0,0,1,1.22,1.42,12.58,12.58,0,0,1,1,2.25c.29.87.57,1.77.85,2.7s.57,1.84.87,2.74a13.75,13.75,0,0,0,1,2.41l-1.68.45c-.21-.49-.39-.93-.53-1.32s-.28-.73-.4-1.07-.25-.64-.39-.95S561.44,148.13,561.24,147.77Zm-3.34-5.59a5,5,0,0,0-1.75.73,8.38,8.38,0,0,0-1.59,1.34,10.17,10.17,0,0,0-1.27,1.75,13.41,13.41,0,0,0-.91,1.93,7.89,7.89,0,0,0-.43,1.86,3.61,3.61,0,0,0,.14,1.54,1.9,1.9,0,0,0,.82,1,2.54,2.54,0,0,0,1.58.26,6,6,0,0,0,2.43-1.39,9.91,9.91,0,0,0,1.79-2.25,11,11,0,0,0,1.08-2.57,7.61,7.61,0,0,0,.28-2.35,2.45,2.45,0,0,0-.61-1.58A1.5,1.5,0,0,0,557.9,142.18Z" style="fill:#339"/><path d="M137.7,140.13c49-9.9,134.39-31.76,189.22,39.87" style="fill:none;stroke:#339;stroke-miterlimit:10;stroke-width:2px"/><path d="M153,146.8a1,1,0,0,0-.58-1.3L138.15,140l11-10.63a1,1,0,1,0-1.39-1.44l-12.13,11.72a1,1,0,0,0-.28.92,1,1,0,0,0,.62.74l15.75,6a1.09,1.09,0,0,0,.56,0A1,1,0,0,0,153,146.8Z" style="fill:#339"/><path d="M145.84,475.46c38.36-32,103-92,185.35-55.13" style="fill:none;stroke:#339;stroke-miterlimit:10;stroke-width:2px"/><path d="M162.48,474a1,1,0,0,0-1.12-.86l-15.17,2,4.61-14.59a1,1,0,1,0-1.91-.6l-5.08,16.09a1,1,0,0,0,.19.94,1,1,0,0,0,.9.35l16.72-2.21a.91.91,0,0,0,.51-.22A1,1,0,0,0,162.48,474Z" style="fill:#339"/></svg>